<?xml version="1.0" encoding="UTF-8"?>
<svg style="background-color:transparent;" preserveAspectRatio="xMinYMin meet" height="584" width="801" viewBox="294 162 821 604" xmlns:xlink="http://www.w3.org/1999/xlink" xmlns="http://www.w3.org/2000/svg" ><defs><g id="linkshape" class="svglink"><rect width="26" height="25.705463" x="0" y="0" rx="26" style="fill:#fff;stroke:none;"/><path d="m12.96972,3.89162c-1.46202,0.0926 -1.96087,1.3485 -1.97318,2.16807c0.061,1.06359 0.95974,1.43208 1.91556,1.67657c0.86622,0.20718 2.53795,-0.39401 2.58252,-1.25608c0.1196,-2.10236 -0.96772,-2.51327 -2.5249,-2.58856 z" style="fill:none;stroke:#00642A;stroke-width:1.33538628"/><path d="m13.33742,8.10908c-0.00095,4.26823 0.42843,9.17994 0.13576,13.07847" style="fill:none;stroke:#00642A;stroke-width:1.33538628"/><path d="m5.79976,15.83298c1.21269,7.46208 13.76733,8.39403 14.45306,0.22481" style="fill:none;stroke:#00642A;stroke-width:1.33538628"/><path d="m20.53438,12.70151c0.36453,0.65146 1.3076,1.62194 1.50505,2.23541c0.14125,0.40272 0.14865,0.52327 -0.60832,0.50239c-0.84553,0.0577 -2.5409,0.2236 -3.30599,0.13608c-0.42486,-0.124 -0.38393,-0.3733 -0.15689,-0.81348c0.4456,-0.73802 0.83742,-1.23374 1.36025,-2.03069c0.44058,-0.5668 0.8427,-0.6095 1.2059,-0.0297 z" style="fill:none;stroke:#00642A;stroke-width:1.33538628"/><path d="m6.65205,12.98495c0.46781,0.5895 0.69238,0.72549 1.30269,1.52036c0.2394,0.21964 0.28495,0.66561 -0.15744,0.62957c-1.02897,0.0804 -2.31388,0.096 -3.23877,0.112c-0.84264,0.0267 -0.72894,-0.1367 -0.46065,-0.75013c0.29098,-0.54544 0.6673,-0.89767 1.08185,-1.59111c0.54713,-0.81778 0.90943,-0.7521 1.47232,0.0793 z" style="fill:none;stroke:#00642A;stroke-width:1.33538628"/></g><style type="text/css">.svg-txt-center tspan {text-anchor: middle;} .svg-txt-right tspan {text-anchor: end;} svg a {fill: #0088cc;} .dark-shape a {fill:#B8ECFF;}</style></defs><g><g><g class="shapebase"><g transform="matrix(1.00000000,0.00000000,0.00000000,1.00000000,400.00000000,434.00000000)"><path fill="rgb(204, 204, 255)" fill-opacity="0" stroke="rgb(51, 102, 0)" stroke-opacity="1" stroke-width="3.0" stroke-linecap="butt" stroke-linejoin="miter" stroke-miterlimit="4" path="" stroke-dasharray="none" fill-rule="evenodd" style="stroke-linejoin:round;" d="m25,0l290,0l2,289l-292,0"/><path fill="rgb(204, 204, 255)" fill-opacity="0" stroke="rgb(51, 102, 0)" stroke-opacity="1" stroke-width="3.0" stroke-linecap="butt" stroke-linejoin="miter" stroke-miterlimit="4" path="" stroke-dasharray="none" fill-rule="evenodd" style="stroke-linejoin:round;" d="m0,0l27,0l2,289l-27,0z"/><g class="shapebase"><text fill="rgb(51, 102, 0)" fill-opacity="1" stroke="none" stroke-opacity="0" stroke-width="1" stroke-linecap="butt" stroke-linejoin="miter" stroke-miterlimit="4" x="10" y="17" text-anchor="start" text-decoration="none" rotate="0" kerning="auto" text-rendering="auto" fill-rule="evenodd" font-style="normal" font-variant="normal" font-weight="bold" font-size="12px" font-family="arial,helvetica,sans-serif" transform="matrix(0.00000000,-1.00000000,1.00000000,0.00000000,-1.00000000,168.00000000)">Server</text></g></g></g><g class="shapebase"><g transform="matrix(1.00000000,0.00000000,0.00000000,1.00000000,740.00000000,434.00000000)"><path fill="rgb(204, 204, 255)" fill-opacity="0" stroke="rgb(51, 102, 0)" stroke-opacity="1" stroke-width="3.0" stroke-linecap="butt" stroke-linejoin="miter" stroke-miterlimit="4" path="" stroke-dasharray="none" fill-rule="evenodd" style="stroke-linejoin:round;" d="m25,0l290,0l2,289l-292,0"/><path fill="rgb(204, 204, 255)" fill-opacity="0" stroke="rgb(51, 102, 0)" stroke-opacity="1" stroke-width="3.0" stroke-linecap="butt" stroke-linejoin="miter" stroke-miterlimit="4" path="" stroke-dasharray="none" fill-rule="evenodd" style="stroke-linejoin:round;" d="m0,0l27,0l2,289l-27,0z"/><g class="shapebase"><text fill="rgb(51, 102, 0)" fill-opacity="1" stroke="none" stroke-opacity="0" stroke-width="1" stroke-linecap="butt" stroke-linejoin="miter" stroke-miterlimit="4" x="10" y="17" text-anchor="start" text-decoration="none" rotate="0" kerning="auto" text-rendering="auto" fill-rule="evenodd" font-style="normal" font-variant="normal" font-weight="bold" font-size="12px" font-family="arial,helvetica,sans-serif" transform="matrix(0.00000000,-1.00000000,1.00000000,0.00000000,-1.00000000,168.00000000)">Server</text></g></g></g></g><g><g class="shapebase"><g transform="matrix(1.00000000,0.00000000,0.00000000,1.00000000,304.00000000,177.00000000)"><path fill="rgb(204, 204, 255)" fill-opacity="0" stroke="rgb(51, 102, 0)" stroke-opacity="1" stroke-width="3.0" stroke-linecap="butt" stroke-linejoin="miter" stroke-miterlimit="4" path="" stroke-dasharray="none" d="m12.410335948743288,0.701093164006169l787.750206362118,15.574034056303812l-17.69047404568694,561.7950252885008l-781.5068545666442,-2.2231416785989495z" fill-rule="evenodd"/></g><rect fill="rgb(0, 0, 0)" fill-opacity="0" stroke="none" stroke-opacity="0" stroke-width="1" stroke-linecap="butt" stroke-linejoin="miter" stroke-miterlimit="4" x="304" y="177" width="801" height="579" ry="0" rx="0" fill-rule="evenodd"/><g transform="matrix(1.00000000,0.00000000,0.00000000,1.00000000,304.00000000,177.00000000)"><g class="shapebase"/></g></g><g class="shapebase"><g transform="matrix(1.00000000,0.00000000,0.00000000,1.00000000,330.00000000,295.00000000)"><path fill="rgb(204, 204, 255)" fill-opacity="0" stroke="rgb(204, 51, 0)" stroke-opacity="1" stroke-width="3.0" stroke-linecap="butt" stroke-linejoin="miter" stroke-miterlimit="4" path="" stroke-dasharray="none" d="m11.837074487939915,0.5448910601084215l751.3622442704844,12.104171546350114l-16.873311074787544,436.6282579962442l-745.4072870023922,-1.7278303201546241z" fill-rule="evenodd"/></g><rect fill="rgb(0, 0, 0)" fill-opacity="0" stroke="none" stroke-opacity="0" stroke-width="1" stroke-linecap="butt" stroke-linejoin="miter" stroke-miterlimit="4" x="330" y="295" width="764" height="450" ry="0" rx="0" fill-rule="evenodd"/><g transform="matrix(1.00000000,0.00000000,0.00000000,1.00000000,330.00000000,295.00000000)"><g class="shapebase"/></g></g><g class="shapebase"><g transform="matrix(1.00000000,0.00000000,0.00000000,1.00000000,362.00000000,364.00000000)"><path fill="rgb(204, 204, 255)" fill-opacity="0" stroke="rgb(51, 0, 255)" stroke-opacity="1" stroke-width="3.0" stroke-linecap="butt" stroke-linejoin="miter" stroke-miterlimit="4" path="" stroke-dasharray="none" d="m11.170851709168428,0.4480215383113688l709.073531569397,9.952318826998985l-15.923635189688245,359.00545657468973l-703.4537355088021,-1.420660485460469z" fill-rule="evenodd"/></g><rect fill="rgb(0, 0, 0)" fill-opacity="0" stroke="none" stroke-opacity="0" stroke-width="1" stroke-linecap="butt" stroke-linejoin="miter" stroke-miterlimit="4" x="362" y="364" width="721" height="370" ry="0" rx="0" fill-rule="evenodd"/><g transform="matrix(1.00000000,0.00000000,0.00000000,1.00000000,362.00000000,364.00000000)"><g class="shapebase"/></g></g><g class="shapebase"><g transform="matrix(1.00000000,0.00000000,0.00000000,1.00000000,382.00000000,358.00000000)"/><rect fill="rgb(0, 0, 0)" fill-opacity="0" stroke="none" stroke-opacity="0" stroke-width="1" stroke-linecap="butt" stroke-linejoin="miter" stroke-miterlimit="4" x="382" y="358" width="567" height="75" ry="4" rx="4" fill-rule="evenodd"/><g transform="matrix(1.00000000,0.00000000,0.00000000,1.00000000,382.00000000,358.00000000)"><g class="shapebase"><text fill="rgb(51, 0, 255)" fill-opacity="1" stroke="none" stroke-opacity="0" stroke-width="1" stroke-linecap="butt" stroke-linejoin="miter" stroke-miterlimit="4" x="0" y="21" text-anchor="start" text-decoration="none" rotate="0" kerning="auto" text-rendering="auto" fill-rule="evenodd" font-style="normal" font-variant="normal" font-weight="Normal" font-size="12px" font-family="arial,helvetica,sans-serif"><tspan dy="8" font-size="18" font-weight="bold" x="0">Container Orchestration</tspan><tspan x="0" dy="19" font-weight="bold">Deployment, Networking, Balancing, Availability, Scaling</tspan><tspan x="0" dy="17" font-weight="bold">Docker, docker-compose, Docker Swarms, Kubernetes</tspan></text></g></g></g><g class="shapebase"><g transform="matrix(1.00000000,0.00000000,0.00000000,1.00000000,442.00000000,461.00000000)"><path fill="rgb(204, 204, 255)" fill-opacity="0" stroke="rgb(204, 51, 0)" stroke-opacity="1" stroke-width="3.0" stroke-linecap="butt" stroke-linejoin="miter" stroke-miterlimit="4" path="" stroke-dasharray="none" d="m127.20153942810737,150.96548924627177c0,24.814504116404883 -5.496257589810558,44.92698053461859 -12.277466614059044,44.92698053461859l-102.60869007153237,0c-6.781209024248486,0 -12.277466614059044,-20.11247641821371 -12.277466614059044,-44.92698053461859l0,-93.06753928354904c0,-24.814504116404883 5.496257589810558,-44.92698053461859 12.277466614059044,-44.92698053461859l104.36220321472507,-12.835904471404435c6.781898931058923,0 12.27815652086948,26.531638347842755 12.27815652086948,51.346142464247635l-1.7542260468968165,99.48417663454819z" fill-rule="evenodd"/></g><rect fill="rgb(0, 0, 0)" fill-opacity="0" stroke="none" stroke-opacity="0" stroke-width="1" stroke-linecap="butt" stroke-linejoin="miter" stroke-miterlimit="4" x="442" y="461" width="129" height="196" ry="0" rx="0" fill-rule="evenodd"/><g transform="matrix(1.00000000,0.00000000,0.00000000,1.00000000,442.00000000,461.00000000)"><g class="shapebase"/></g></g><g class="shapebase"><g transform="matrix(1.00000000,0.00000000,0.00000000,1.00000000,782.00000000,461.00000000)"><path fill="rgb(204, 204, 255)" fill-opacity="0" stroke="rgb(204, 51, 0)" stroke-opacity="1" stroke-width="3.0" stroke-linecap="butt" stroke-linejoin="miter" stroke-miterlimit="4" path="" stroke-dasharray="none" d="m127.20153942810737,150.96548924627177c0,24.814504116404883 -5.496257589810558,44.92698053461859 -12.277466614059044,44.92698053461859l-102.60869007153237,0c-6.781209024248486,0 -12.277466614059044,-20.11247641821371 -12.277466614059044,-44.92698053461859l0,-93.06753928354904c0,-24.814504116404883 5.496257589810558,-44.92698053461859 12.277466614059044,-44.92698053461859l104.36220321472507,-12.835904471404435c6.781898931058923,0 12.27815652086948,26.531638347842755 12.27815652086948,51.346142464247635l-1.7542260468968165,99.48417663454819z" fill-rule="evenodd"/></g><rect fill="rgb(0, 0, 0)" fill-opacity="0" stroke="none" stroke-opacity="0" stroke-width="1" stroke-linecap="butt" stroke-linejoin="miter" stroke-miterlimit="4" x="782" y="461" width="129" height="196" ry="0" rx="0" fill-rule="evenodd"/><g transform="matrix(1.00000000,0.00000000,0.00000000,1.00000000,782.00000000,461.00000000)"><g class="shapebase"/></g></g><g class="shapebase"><g transform="matrix(1.00000000,0.00000000,0.00000000,1.00000000,915.00000000,462.00000000)"><path fill="rgb(204, 204, 255)" fill-opacity="0" stroke="rgb(204, 51, 0)" stroke-opacity="1" stroke-width="3.0" stroke-linecap="butt" stroke-linejoin="miter" stroke-miterlimit="4" path="" stroke-dasharray="none" d="m127.20153942810737,150.96548924627177c0,24.814504116404883 -5.496257589810558,44.92698053461859 -12.277466614059044,44.92698053461859l-102.60869007153237,0c-6.781209024248486,0 -12.277466614059044,-20.11247641821371 -12.277466614059044,-44.92698053461859l0,-93.06753928354904c0,-24.814504116404883 5.496257589810558,-44.92698053461859 12.277466614059044,-44.92698053461859l104.36220321472507,-12.835904471404435c6.781898931058923,0 12.27815652086948,26.531638347842755 12.27815652086948,51.346142464247635l-1.7542260468968165,99.48417663454819z" fill-rule="evenodd"/></g><rect fill="rgb(0, 0, 0)" fill-opacity="0" stroke="none" stroke-opacity="0" stroke-width="1" stroke-linecap="butt" stroke-linejoin="miter" stroke-miterlimit="4" x="915" y="462" width="129" height="196" ry="0" rx="0" fill-rule="evenodd"/><g transform="matrix(1.00000000,0.00000000,0.00000000,1.00000000,915.00000000,462.00000000)"><g class="shapebase"/></g></g><g class="shapebase"><g transform="matrix(1.00000000,0.00000000,0.00000000,1.00000000,575.00000000,462.00000000)"><path fill="rgb(204, 204, 255)" fill-opacity="0" stroke="rgb(204, 51, 0)" stroke-opacity="1" stroke-width="3.0" stroke-linecap="butt" stroke-linejoin="miter" stroke-miterlimit="4" path="" stroke-dasharray="none" d="m127.20153942810737,150.96548924627177c0,24.814504116404883 -5.496257589810558,44.92698053461859 -12.277466614059044,44.92698053461859l-102.60869007153237,0c-6.781209024248486,0 -12.277466614059044,-20.11247641821371 -12.277466614059044,-44.92698053461859l0,-93.06753928354904c0,-24.814504116404883 5.496257589810558,-44.92698053461859 12.277466614059044,-44.92698053461859l104.36220321472507,-12.835904471404435c6.781898931058923,0 12.27815652086948,26.531638347842755 12.27815652086948,51.346142464247635l-1.7542260468968165,99.48417663454819z" fill-rule="evenodd"/></g><rect fill="rgb(0, 0, 0)" fill-opacity="0" stroke="none" stroke-opacity="0" stroke-width="1" stroke-linecap="butt" stroke-linejoin="miter" stroke-miterlimit="4" x="575" y="462" width="129" height="196" ry="0" rx="0" fill-rule="evenodd"/><g transform="matrix(1.00000000,0.00000000,0.00000000,1.00000000,575.00000000,462.00000000)"><g class="shapebase"/></g></g><g class="shapebase"><g transform="matrix(1.00000000,0.00000000,0.00000000,1.00000000,458.00000000,476.00000000)"/><rect fill="rgb(0, 0, 0)" fill-opacity="0" stroke="none" stroke-opacity="0" stroke-width="1" stroke-linecap="butt" stroke-linejoin="miter" stroke-miterlimit="4" x="458" y="476" width="100" height="34" ry="4" rx="4" fill-rule="evenodd"/><g transform="matrix(1.00000000,0.00000000,0.00000000,1.00000000,458.00000000,476.00000000)"><g class="shapebase"><text fill="rgb(204, 51, 0)" fill-opacity="1" stroke="none" stroke-opacity="0" stroke-width="1" stroke-linecap="butt" stroke-linejoin="miter" stroke-miterlimit="4" x="0" y="21" text-anchor="start" text-decoration="none" rotate="0" kerning="auto" text-rendering="auto" fill-rule="evenodd" font-style="normal" font-variant="normal" font-weight="Normal" font-size="12px" font-family="arial,helvetica,sans-serif"><tspan x="0" font-weight="bold">VM/OS</tspan></text></g></g></g><g class="shapebase"><g transform="matrix(1.00000000,0.00000000,0.00000000,1.00000000,440.00000000,680.00000000)"><path fill="rgb(204, 204, 255)" fill-opacity="0" stroke="rgb(51, 102, 0)" stroke-opacity="1" stroke-width="3.0" stroke-linecap="butt" stroke-linejoin="miter" stroke-miterlimit="4" path="" stroke-dasharray="none" d="m260.3194295272895,26.95812307969139c0,4.431161449358015 -11.248155067519283,8.022675095467607 -25.125978186911535,8.022675095467607l-209.98987735569418,0c-13.877823119392252,0 -25.125978186911535,-3.591513646109591 -25.125978186911535,-8.022675095467607l0,-16.619203443490903c0,-4.431161449358015 11.248155067519283,-8.022675095467607 25.125978186911535,-8.022675095467607l213.57846239292576,-2.2921257984650776c13.879235021701984,0 25.127390089221265,4.737792562114778 25.127390089221265,9.168954011472792l-3.590044002951625,17.76503154188361z" fill-rule="evenodd"/></g><rect fill="rgb(0, 0, 0)" fill-opacity="0" stroke="none" stroke-opacity="0" stroke-width="1" stroke-linecap="butt" stroke-linejoin="miter" stroke-miterlimit="4" x="440" y="680" width="264" height="35" ry="0" rx="0" fill-rule="evenodd"/><g transform="matrix(1.00000000,0.00000000,0.00000000,1.00000000,440.00000000,680.00000000)"><g class="shapebase"><text fill="rgb(51, 102, 0)" fill-opacity="1" stroke="none" stroke-opacity="0" stroke-width="1" stroke-linecap="butt" stroke-linejoin="miter" stroke-miterlimit="4" x="132" y="21" text-anchor="middle" text-decoration="none" rotate="0" kerning="auto" text-rendering="auto" fill-rule="evenodd" font-style="normal" font-variant="normal" font-weight="bold" font-size="12px" font-family="arial,helvetica,sans-serif">Hypervisor</text></g></g></g><g class="shapebase"><g transform="matrix(1.00000000,0.00000000,0.00000000,1.00000000,798.00000000,476.00000000)"/><rect fill="rgb(0, 0, 0)" fill-opacity="0" stroke="none" stroke-opacity="0" stroke-width="1" stroke-linecap="butt" stroke-linejoin="miter" stroke-miterlimit="4" x="798" y="476" width="100" height="34" ry="4" rx="4" fill-rule="evenodd"/><g transform="matrix(1.00000000,0.00000000,0.00000000,1.00000000,798.00000000,476.00000000)"><g class="shapebase"><text fill="rgb(204, 51, 0)" fill-opacity="1" stroke="none" stroke-opacity="0" stroke-width="1" stroke-linecap="butt" stroke-linejoin="miter" stroke-miterlimit="4" x="0" y="21" text-anchor="start" text-decoration="none" rotate="0" kerning="auto" text-rendering="auto" fill-rule="evenodd" font-style="normal" font-variant="normal" font-weight="Normal" font-size="12px" font-family="arial,helvetica,sans-serif"><tspan x="0" font-weight="bold">VM/OS</tspan></text></g></g></g><g class="shapebase"><g transform="matrix(1.00000000,0.00000000,0.00000000,1.00000000,780.00000000,680.00000000)"><path fill="rgb(204, 204, 255)" fill-opacity="0" stroke="rgb(51, 102, 0)" stroke-opacity="1" stroke-width="3.0" stroke-linecap="butt" stroke-linejoin="miter" stroke-miterlimit="4" path="" stroke-dasharray="none" d="m260.3194295272895,26.95812307969139c0,4.431161449358015 -11.248155067519283,8.022675095467607 -25.125978186911535,8.022675095467607l-209.98987735569418,0c-13.877823119392252,0 -25.125978186911535,-3.591513646109591 -25.125978186911535,-8.022675095467607l0,-16.619203443490903c0,-4.431161449358015 11.248155067519283,-8.022675095467607 25.125978186911535,-8.022675095467607l213.57846239292576,-2.2921257984650776c13.879235021701984,0 25.127390089221265,4.737792562114778 25.127390089221265,9.168954011472792l-3.590044002951625,17.76503154188361z" fill-rule="evenodd"/></g><rect fill="rgb(0, 0, 0)" fill-opacity="0" stroke="none" stroke-opacity="0" stroke-width="1" stroke-linecap="butt" stroke-linejoin="miter" stroke-miterlimit="4" x="780" y="680" width="264" height="35" ry="0" rx="0" fill-rule="evenodd"/><g transform="matrix(1.00000000,0.00000000,0.00000000,1.00000000,780.00000000,680.00000000)"><g class="shapebase"><text fill="rgb(51, 102, 0)" fill-opacity="1" stroke="none" stroke-opacity="0" stroke-width="1" stroke-linecap="butt" stroke-linejoin="miter" stroke-miterlimit="4" x="132" y="21" text-anchor="middle" text-decoration="none" rotate="0" kerning="auto" text-rendering="auto" fill-rule="evenodd" font-style="normal" font-variant="normal" font-weight="bold" font-size="12px" font-family="arial,helvetica,sans-serif">Hypervisor</text></g></g></g><g class="shapebase"><g transform="matrix(1.00000000,0.00000000,0.00000000,1.00000000,798.00000000,605.00000000)"><path fill="rgb(204, 204, 255)" fill-opacity="0" stroke="rgb(51, 0, 255)" stroke-opacity="1" stroke-width="3.0" stroke-linecap="butt" stroke-linejoin="miter" stroke-miterlimit="4" path="" stroke-dasharray="none" d="m99.59190296309183,29.26881934366494c0,4.810975287874417 -4.303271446285786,8.710332960793401 -9.61259013968964,8.710332960793401l-80.33703641259511,0c-5.309318693403854,0 -9.61259013968964,-3.8993576729189847 -9.61259013968964,-8.710332960793401l0,-18.043706595790123c0,-4.810975287874417 4.303271446285786,-8.710332960793401 9.61259013968964,-8.710332960793401l81.70994205183901,-2.488593724047799c5.309858852999622,0 9.613130299285409,5.143889067438901 9.613130299285409,9.954864355313317l-1.373463804159523,19.287748531187916z" fill-rule="evenodd"/></g><rect fill="rgb(0, 0, 0)" fill-opacity="0" stroke="none" stroke-opacity="0" stroke-width="1" stroke-linecap="butt" stroke-linejoin="miter" stroke-miterlimit="4" x="798" y="605" width="101" height="38" ry="0" rx="0" fill-rule="evenodd"/><g transform="matrix(1.00000000,0.00000000,0.00000000,1.00000000,798.00000000,605.00000000)"><g class="shapebase"><text fill="rgb(51, 0, 255)" fill-opacity="1" stroke="none" stroke-opacity="0" stroke-width="1" stroke-linecap="butt" stroke-linejoin="miter" stroke-miterlimit="4" x="50" y="23" text-anchor="middle" text-decoration="none" rotate="0" kerning="auto" text-rendering="auto" fill-rule="evenodd" font-style="normal" font-variant="normal" font-weight="bold" font-size="12px" font-family="arial,helvetica,sans-serif">Container</text></g></g></g><g class="shapebase"><g transform="matrix(1.00000000,0.00000000,0.00000000,1.00000000,798.00000000,557.00000000)"><path fill="rgb(204, 204, 255)" fill-opacity="0" stroke="rgb(51, 0, 255)" stroke-opacity="1" stroke-width="3.0" stroke-linecap="butt" stroke-linejoin="miter" stroke-miterlimit="4" path="" stroke-dasharray="none" d="m99.59190296309183,29.26881934366494c0,4.810975287874417 -4.303271446285786,8.710332960793401 -9.61259013968964,8.710332960793401l-80.33703641259511,0c-5.309318693403854,0 -9.61259013968964,-3.8993576729189847 -9.61259013968964,-8.710332960793401l0,-18.043706595790123c0,-4.810975287874417 4.303271446285786,-8.710332960793401 9.61259013968964,-8.710332960793401l81.70994205183901,-2.488593724047799c5.309858852999622,0 9.613130299285409,5.143889067438901 9.613130299285409,9.954864355313317l-1.373463804159523,19.287748531187916z" fill-rule="evenodd"/></g><rect fill="rgb(0, 0, 0)" fill-opacity="0" stroke="none" stroke-opacity="0" stroke-width="1" stroke-linecap="butt" stroke-linejoin="miter" stroke-miterlimit="4" x="798" y="557" width="101" height="38" ry="0" rx="0" fill-rule="evenodd"/><g transform="matrix(1.00000000,0.00000000,0.00000000,1.00000000,798.00000000,557.00000000)"><g class="shapebase"><text fill="rgb(51, 0, 255)" fill-opacity="1" stroke="none" stroke-opacity="0" stroke-width="1" stroke-linecap="butt" stroke-linejoin="miter" stroke-miterlimit="4" x="50" y="23" text-anchor="middle" text-decoration="none" rotate="0" kerning="auto" text-rendering="auto" fill-rule="evenodd" font-style="normal" font-variant="normal" font-weight="bold" font-size="12px" font-family="arial,helvetica,sans-serif">Container</text></g></g></g><g class="shapebase"><g transform="matrix(1.00000000,0.00000000,0.00000000,1.00000000,798.00000000,510.00000000)"><path fill="rgb(204, 204, 255)" fill-opacity="0" stroke="rgb(51, 0, 255)" stroke-opacity="1" stroke-width="3.0" stroke-linecap="butt" stroke-linejoin="miter" stroke-miterlimit="4" path="" stroke-dasharray="none" d="m99.59190296309183,29.26881934366494c0,4.810975287874417 -4.303271446285786,8.710332960793401 -9.61259013968964,8.710332960793401l-80.33703641259511,0c-5.309318693403854,0 -9.61259013968964,-3.8993576729189847 -9.61259013968964,-8.710332960793401l0,-18.043706595790123c0,-4.810975287874417 4.303271446285786,-8.710332960793401 9.61259013968964,-8.710332960793401l81.70994205183901,-2.488593724047799c5.309858852999622,0 9.613130299285409,5.143889067438901 9.613130299285409,9.954864355313317l-1.373463804159523,19.287748531187916z" fill-rule="evenodd"/></g><rect fill="rgb(0, 0, 0)" fill-opacity="0" stroke="none" stroke-opacity="0" stroke-width="1" stroke-linecap="butt" stroke-linejoin="miter" stroke-miterlimit="4" x="798" y="510" width="101" height="38" ry="0" rx="0" fill-rule="evenodd"/><g transform="matrix(1.00000000,0.00000000,0.00000000,1.00000000,798.00000000,510.00000000)"><g class="shapebase"><text fill="rgb(51, 0, 255)" fill-opacity="1" stroke="none" stroke-opacity="0" stroke-width="1" stroke-linecap="butt" stroke-linejoin="miter" stroke-miterlimit="4" x="50" y="23" text-anchor="middle" text-decoration="none" rotate="0" kerning="auto" text-rendering="auto" fill-rule="evenodd" font-style="normal" font-variant="normal" font-weight="bold" font-size="12px" font-family="arial,helvetica,sans-serif">Container</text></g></g></g><g class="shapebase"><g transform="matrix(1.00000000,0.00000000,0.00000000,1.00000000,931.00000000,477.00000000)"/><rect fill="rgb(0, 0, 0)" fill-opacity="0" stroke="none" stroke-opacity="0" stroke-width="1" stroke-linecap="butt" stroke-linejoin="miter" stroke-miterlimit="4" x="931" y="477" width="100" height="34" ry="4" rx="4" fill-rule="evenodd"/><g transform="matrix(1.00000000,0.00000000,0.00000000,1.00000000,931.00000000,477.00000000)"><g class="shapebase"><text fill="rgb(204, 51, 0)" fill-opacity="1" stroke="none" stroke-opacity="0" stroke-width="1" stroke-linecap="butt" stroke-linejoin="miter" stroke-miterlimit="4" x="0" y="21" text-anchor="start" text-decoration="none" rotate="0" kerning="auto" text-rendering="auto" fill-rule="evenodd" font-style="normal" font-variant="normal" font-weight="Normal" font-size="12px" font-family="arial,helvetica,sans-serif"><tspan x="0" font-weight="bold">VM/OS</tspan></text></g></g></g><g class="shapebase"><g transform="matrix(1.00000000,0.00000000,0.00000000,1.00000000,931.00000000,606.00000000)"><path fill="rgb(204, 204, 255)" fill-opacity="0" stroke="rgb(51, 0, 255)" stroke-opacity="1" stroke-width="3.0" stroke-linecap="butt" stroke-linejoin="miter" stroke-miterlimit="4" path="" stroke-dasharray="none" d="m99.59190296309183,29.26881934366494c0,4.810975287874417 -4.303271446285786,8.710332960793401 -9.61259013968964,8.710332960793401l-80.33703641259511,0c-5.309318693403854,0 -9.61259013968964,-3.8993576729189847 -9.61259013968964,-8.710332960793401l0,-18.043706595790123c0,-4.810975287874417 4.303271446285786,-8.710332960793401 9.61259013968964,-8.710332960793401l81.70994205183901,-2.488593724047799c5.309858852999622,0 9.613130299285409,5.143889067438901 9.613130299285409,9.954864355313317l-1.373463804159523,19.287748531187916z" fill-rule="evenodd"/></g><rect fill="rgb(0, 0, 0)" fill-opacity="0" stroke="none" stroke-opacity="0" stroke-width="1" stroke-linecap="butt" stroke-linejoin="miter" stroke-miterlimit="4" x="931" y="606" width="101" height="38" ry="0" rx="0" fill-rule="evenodd"/><g transform="matrix(1.00000000,0.00000000,0.00000000,1.00000000,931.00000000,606.00000000)"><g class="shapebase"><text fill="rgb(51, 0, 255)" fill-opacity="1" stroke="none" stroke-opacity="0" stroke-width="1" stroke-linecap="butt" stroke-linejoin="miter" stroke-miterlimit="4" x="50" y="23" text-anchor="middle" text-decoration="none" rotate="0" kerning="auto" text-rendering="auto" fill-rule="evenodd" font-style="normal" font-variant="normal" font-weight="bold" font-size="12px" font-family="arial,helvetica,sans-serif">Container</text></g></g></g><g class="shapebase"><g transform="matrix(1.00000000,0.00000000,0.00000000,1.00000000,458.00000000,605.00000000)"><path fill="rgb(204, 204, 255)" fill-opacity="0" stroke="rgb(51, 0, 255)" stroke-opacity="1" stroke-width="3.0" stroke-linecap="butt" stroke-linejoin="miter" stroke-miterlimit="4" path="" stroke-dasharray="none" d="m99.59190296309183,29.26881934366494c0,4.810975287874417 -4.303271446285786,8.710332960793401 -9.61259013968964,8.710332960793401l-80.33703641259511,0c-5.309318693403854,0 -9.61259013968964,-3.8993576729189847 -9.61259013968964,-8.710332960793401l0,-18.043706595790123c0,-4.810975287874417 4.303271446285786,-8.710332960793401 9.61259013968964,-8.710332960793401l81.70994205183901,-2.488593724047799c5.309858852999622,0 9.613130299285409,5.143889067438901 9.613130299285409,9.954864355313317l-1.373463804159523,19.287748531187916z" fill-rule="evenodd"/></g><rect fill="rgb(0, 0, 0)" fill-opacity="0" stroke="none" stroke-opacity="0" stroke-width="1" stroke-linecap="butt" stroke-linejoin="miter" stroke-miterlimit="4" x="458" y="605" width="101" height="38" ry="0" rx="0" fill-rule="evenodd"/><g transform="matrix(1.00000000,0.00000000,0.00000000,1.00000000,458.00000000,605.00000000)"><g class="shapebase"><text fill="rgb(51, 0, 255)" fill-opacity="1" stroke="none" stroke-opacity="0" stroke-width="1" stroke-linecap="butt" stroke-linejoin="miter" stroke-miterlimit="4" x="50" y="23" text-anchor="middle" text-decoration="none" rotate="0" kerning="auto" text-rendering="auto" fill-rule="evenodd" font-style="normal" font-variant="normal" font-weight="bold" font-size="12px" font-family="arial,helvetica,sans-serif">Container</text></g></g></g><g class="shapebase"><g transform="matrix(1.00000000,0.00000000,0.00000000,1.00000000,931.00000000,558.00000000)"><path fill="rgb(204, 204, 255)" fill-opacity="0" stroke="rgb(51, 0, 255)" stroke-opacity="1" stroke-width="3.0" stroke-linecap="butt" stroke-linejoin="miter" stroke-miterlimit="4" path="" stroke-dasharray="none" d="m99.59190296309183,29.26881934366494c0,4.810975287874417 -4.303271446285786,8.710332960793401 -9.61259013968964,8.710332960793401l-80.33703641259511,0c-5.309318693403854,0 -9.61259013968964,-3.8993576729189847 -9.61259013968964,-8.710332960793401l0,-18.043706595790123c0,-4.810975287874417 4.303271446285786,-8.710332960793401 9.61259013968964,-8.710332960793401l81.70994205183901,-2.488593724047799c5.309858852999622,0 9.613130299285409,5.143889067438901 9.613130299285409,9.954864355313317l-1.373463804159523,19.287748531187916z" fill-rule="evenodd"/></g><rect fill="rgb(0, 0, 0)" fill-opacity="0" stroke="none" stroke-opacity="0" stroke-width="1" stroke-linecap="butt" stroke-linejoin="miter" stroke-miterlimit="4" x="931" y="558" width="101" height="38" ry="0" rx="0" fill-rule="evenodd"/><g transform="matrix(1.00000000,0.00000000,0.00000000,1.00000000,931.00000000,558.00000000)"><g class="shapebase"><text fill="rgb(51, 0, 255)" fill-opacity="1" stroke="none" stroke-opacity="0" stroke-width="1" stroke-linecap="butt" stroke-linejoin="miter" stroke-miterlimit="4" x="50" y="23" text-anchor="middle" text-decoration="none" rotate="0" kerning="auto" text-rendering="auto" fill-rule="evenodd" font-style="normal" font-variant="normal" font-weight="bold" font-size="12px" font-family="arial,helvetica,sans-serif">Container</text></g></g></g><g class="shapebase"><g transform="matrix(1.00000000,0.00000000,0.00000000,1.00000000,931.00000000,511.00000000)"><path fill="rgb(204, 204, 255)" fill-opacity="0" stroke="rgb(51, 0, 255)" stroke-opacity="1" stroke-width="3.0" stroke-linecap="butt" stroke-linejoin="miter" stroke-miterlimit="4" path="" stroke-dasharray="none" d="m99.59190296309183,29.26881934366494c0,4.810975287874417 -4.303271446285786,8.710332960793401 -9.61259013968964,8.710332960793401l-80.33703641259511,0c-5.309318693403854,0 -9.61259013968964,-3.8993576729189847 -9.61259013968964,-8.710332960793401l0,-18.043706595790123c0,-4.810975287874417 4.303271446285786,-8.710332960793401 9.61259013968964,-8.710332960793401l81.70994205183901,-2.488593724047799c5.309858852999622,0 9.613130299285409,5.143889067438901 9.613130299285409,9.954864355313317l-1.373463804159523,19.287748531187916z" fill-rule="evenodd"/></g><rect fill="rgb(0, 0, 0)" fill-opacity="0" stroke="none" stroke-opacity="0" stroke-width="1" stroke-linecap="butt" stroke-linejoin="miter" stroke-miterlimit="4" x="931" y="511" width="101" height="38" ry="0" rx="0" fill-rule="evenodd"/><g transform="matrix(1.00000000,0.00000000,0.00000000,1.00000000,931.00000000,511.00000000)"><g class="shapebase"><text fill="rgb(51, 0, 255)" fill-opacity="1" stroke="none" stroke-opacity="0" stroke-width="1" stroke-linecap="butt" stroke-linejoin="miter" stroke-miterlimit="4" x="50" y="23" text-anchor="middle" text-decoration="none" rotate="0" kerning="auto" text-rendering="auto" fill-rule="evenodd" font-style="normal" font-variant="normal" font-weight="bold" font-size="12px" font-family="arial,helvetica,sans-serif">Container</text></g></g></g><g class="shapebase"><g transform="matrix(1.00000000,0.00000000,0.00000000,1.00000000,351.00000000,290.00000000)"/><rect fill="rgb(0, 0, 0)" fill-opacity="0" stroke="none" stroke-opacity="0" stroke-width="1" stroke-linecap="butt" stroke-linejoin="miter" stroke-miterlimit="4" x="351" y="290" width="664" height="75" ry="4" rx="4" fill-rule="evenodd"/><g transform="matrix(1.00000000,0.00000000,0.00000000,1.00000000,351.00000000,290.00000000)"><g class="shapebase"><text fill="rgb(204, 51, 0)" fill-opacity="1" stroke="none" stroke-opacity="0" stroke-width="1" stroke-linecap="butt" stroke-linejoin="miter" stroke-miterlimit="4" x="0" y="21" text-anchor="start" text-decoration="none" rotate="0" kerning="auto" text-rendering="auto" fill-rule="evenodd" font-style="normal" font-variant="normal" font-weight="Normal" font-size="12px" font-family="arial,helvetica,sans-serif"><tspan dy="8" font-size="18" font-weight="bold" x="0">Virtual Machine Management</tspan><tspan x="0" dy="19" font-weight="bold">Consistent VMs, Cross-Cloud Deployments, Provisioning</tspan><tspan x="0" dy="17" font-weight="bold">Vagrant, Puppet, Chef</tspan></text></g></g></g><g class="shapebase"><g transform="matrix(1.00000000,0.00000000,0.00000000,1.00000000,711.00000000,190.00000000)"><path fill="rgb(204, 204, 255)" fill-opacity="0" stroke="rgb(51, 102, 0)" stroke-opacity="1" stroke-width="3.0" stroke-linecap="butt" stroke-linejoin="miter" stroke-miterlimit="4" path="" stroke-dasharray="none" d="m108.89817658779045,0.10466895900348665c-9.9564243836526,0 -18.765364191939103,5.953394103555788 -24.177003776757232,15.097009935256585c-10.12661045215416,-6.239746339819011 -23.65468203074942,-9.860587183089521 -36.77909465181819,-9.040313078056933c-19.52824777277722,1.2210746864057702 -31.54077465502429,11.857428529602563 -29.212826495545347,24.707162861698816c-12.75799631360676,5.5205934669689505 -19.905297498947295,12.399040812412395 -18.264257914174923,19.205145380506693c1.3428929075664982,5.569424290790367 8.355041800052339,10.187418762024198 18.990823490053607,13.402915289322257c-3.100150108209058,5.879817334268917 -3.1524131043133403,12.017891552647487 0.5261333386075123,17.361076642998107c8.119668251644807,11.794076264942559 31.51745305070805,15.362758913273858 52.96367161721989,8.30558105699309c0.4232306122500336,0.6635945894110103 0.8595398158192635,1.31885312257128 1.327862287692198,1.9638871511046827c11.254882957004233,15.502089824385235 31.308020934414397,19.429599699750803 44.77126461731121,8.77037734167952c4.381400008772274,-3.4688835503677633 7.508580575552271,-8.064820415714754 9.370148017878885,-13.208164918864822c7.990988474525456,11.846542957866202 24.669171818505937,14.054396925730273 39.25945514611275,4.497768399586879c3.984958419982417,-2.610267552984425 7.439437669363589,-5.8472707969114115 10.272087948681905,-9.47514098711289c3.3674547342442898,3.168692975945764 7.027713751754169,5.933892623825665 10.873364112826417,8.140953311158343c19.208731519810208,11.023977153520697 35.99088606893622,3.9627447523016883 37.50566022769687,-15.771893347340749c0.272811401327525,-3.554161207492709 0.04058164627716065,-7.269160042725724 -0.6514022026726819,-11.04925195267375c13.577488722542892,-3.7596649362646075 21.73311539493961,-8.813148383663892 21.09536711831816,-14.16737329474309c-0.48840268140425347,-4.100863707045657 -6.061870570357746,-7.761280434604643 -15.10746815636435,-10.614578292610005c4.36705773580951,-4.87406983388215 7.429266573208048,-9.691265860777355 8.768871853734371,-14.092738818081026c4.7688674031259035,-15.668744842689103 -14.324756074940177,-20.16045346043894 -42.66677235821916,-10.029644078557888c-1.2496835440602854,0.4466566032018681 -2.490916859243871,0.9219594478152168 -3.733018313442753,1.4092320142245012c-10.303577251426082,-14.541933918983357 -37.09347398753493,-17.994687431879424 -60.30484005958574,-7.646012366278908c-1.5150001831196616,0.6754320977850468 -2.9764017716499693,1.3881175307472082 -4.384441063784436,2.1438406360945717c-5.3360755320666025,-6.13536384322964 -12.5296089726596,-9.909814647176633 -20.443954641810976,-9.909814647176633z" fill-rule="evenodd"/></g><rect fill="rgb(0, 0, 0)" fill-opacity="0" stroke="none" stroke-opacity="0" stroke-width="1" stroke-linecap="butt" stroke-linejoin="miter" stroke-miterlimit="4" x="711" y="190" width="247" height="106" ry="0" rx="0" fill-rule="evenodd"/><g transform="matrix(1.00000000,0.00000000,0.00000000,1.00000000,711.00000000,190.00000000)"><g class="shapebase"/></g></g><g class="shapebase"><g transform="matrix(1.00000000,0.00000000,0.00000000,1.00000000,743.00000000,197.00000000)"/><rect fill="rgb(0, 0, 0)" fill-opacity="0" stroke="none" stroke-opacity="0" stroke-width="1" stroke-linecap="butt" stroke-linejoin="miter" stroke-miterlimit="4" x="743" y="197" width="206" height="81" ry="4" rx="4" fill-rule="evenodd"/><g transform="matrix(1.00000000,0.00000000,0.00000000,1.00000000,743.00000000,197.00000000)"><g class="shapebase"><text fill="rgb(51, 102, 0)" fill-opacity="1" stroke="none" stroke-opacity="0" stroke-width="1" stroke-linecap="butt" stroke-linejoin="miter" stroke-miterlimit="4" x="0" y="21" text-anchor="start" text-decoration="none" rotate="0" kerning="auto" text-rendering="auto" fill-rule="evenodd" font-style="normal" font-variant="normal" font-weight="Normal" font-size="12px" font-family="arial,helvetica,sans-serif"><tspan dy="8" font-size="18" font-weight="bold" x="0">Independent Services</tspan><tspan x="0" dx="7" dy="22">●    DNS</tspan><tspan x="0" dx="7" dy="20">●    Content Delivery</tspan></text></g></g></g><g class="shapebase"><g transform="matrix(1.00000000,0.00000000,0.00000000,1.00000000,328.00000000,172.00000000)"/><rect fill="rgb(0, 0, 0)" fill-opacity="0" stroke="none" stroke-opacity="0" stroke-width="1" stroke-linecap="butt" stroke-linejoin="miter" stroke-miterlimit="4" x="328" y="172" width="523" height="75" ry="4" rx="4" fill-rule="evenodd"/><g transform="matrix(1.00000000,0.00000000,0.00000000,1.00000000,328.00000000,172.00000000)"><g class="shapebase"><text fill="rgb(51, 102, 0)" fill-opacity="1" stroke="none" stroke-opacity="0" stroke-width="1" stroke-linecap="butt" stroke-linejoin="miter" stroke-miterlimit="4" x="0" y="21" text-anchor="start" text-decoration="none" rotate="0" kerning="auto" text-rendering="auto" fill-rule="evenodd" font-style="normal" font-variant="normal" font-weight="Normal" font-size="12px" font-family="arial,helvetica,sans-serif"><tspan dy="8" font-size="18" font-weight="bold" x="0">Infrastructure Management</tspan><tspan x="0" dy="19" font-weight="bold">Cross-Cloud, Multi-Cloud Deployments, Infrastructure As Code</tspan><tspan x="0" dy="17" font-weight="bold">Terraform</tspan></text></g></g></g><g class="shapebase"><g transform="matrix(1.00000000,0.00000000,0.00000000,1.00000000,458.00000000,557.00000000)"><path fill="rgb(204, 204, 255)" fill-opacity="0" stroke="rgb(51, 0, 255)" stroke-opacity="1" stroke-width="3.0" stroke-linecap="butt" stroke-linejoin="miter" stroke-miterlimit="4" path="" stroke-dasharray="none" d="m99.59190296309183,29.26881934366494c0,4.810975287874417 -4.303271446285786,8.710332960793401 -9.61259013968964,8.710332960793401l-80.33703641259511,0c-5.309318693403854,0 -9.61259013968964,-3.8993576729189847 -9.61259013968964,-8.710332960793401l0,-18.043706595790123c0,-4.810975287874417 4.303271446285786,-8.710332960793401 9.61259013968964,-8.710332960793401l81.70994205183901,-2.488593724047799c5.309858852999622,0 9.613130299285409,5.143889067438901 9.613130299285409,9.954864355313317l-1.373463804159523,19.287748531187916z" fill-rule="evenodd"/></g><rect fill="rgb(0, 0, 0)" fill-opacity="0" stroke="none" stroke-opacity="0" stroke-width="1" stroke-linecap="butt" stroke-linejoin="miter" stroke-miterlimit="4" x="458" y="557" width="101" height="38" ry="0" rx="0" fill-rule="evenodd"/><g transform="matrix(1.00000000,0.00000000,0.00000000,1.00000000,458.00000000,557.00000000)"><g class="shapebase"><text fill="rgb(51, 0, 255)" fill-opacity="1" stroke="none" stroke-opacity="0" stroke-width="1" stroke-linecap="butt" stroke-linejoin="miter" stroke-miterlimit="4" x="50" y="23" text-anchor="middle" text-decoration="none" rotate="0" kerning="auto" text-rendering="auto" fill-rule="evenodd" font-style="normal" font-variant="normal" font-weight="bold" font-size="12px" font-family="arial,helvetica,sans-serif">Container</text></g></g></g><g class="shapebase"><g transform="matrix(1.00000000,0.00000000,0.00000000,1.00000000,458.00000000,510.00000000)"><path fill="rgb(204, 204, 255)" fill-opacity="0" stroke="rgb(51, 0, 255)" stroke-opacity="1" stroke-width="3.0" stroke-linecap="butt" stroke-linejoin="miter" stroke-miterlimit="4" path="" stroke-dasharray="none" d="m99.59190296309183,29.26881934366494c0,4.810975287874417 -4.303271446285786,8.710332960793401 -9.61259013968964,8.710332960793401l-80.33703641259511,0c-5.309318693403854,0 -9.61259013968964,-3.8993576729189847 -9.61259013968964,-8.710332960793401l0,-18.043706595790123c0,-4.810975287874417 4.303271446285786,-8.710332960793401 9.61259013968964,-8.710332960793401l81.70994205183901,-2.488593724047799c5.309858852999622,0 9.613130299285409,5.143889067438901 9.613130299285409,9.954864355313317l-1.373463804159523,19.287748531187916z" fill-rule="evenodd"/></g><rect fill="rgb(0, 0, 0)" fill-opacity="0" stroke="none" stroke-opacity="0" stroke-width="1" stroke-linecap="butt" stroke-linejoin="miter" stroke-miterlimit="4" x="458" y="510" width="101" height="38" ry="0" rx="0" fill-rule="evenodd"/><g transform="matrix(1.00000000,0.00000000,0.00000000,1.00000000,458.00000000,510.00000000)"><g class="shapebase"><text fill="rgb(51, 0, 255)" fill-opacity="1" stroke="none" stroke-opacity="0" stroke-width="1" stroke-linecap="butt" stroke-linejoin="miter" stroke-miterlimit="4" x="50" y="23" text-anchor="middle" text-decoration="none" rotate="0" kerning="auto" text-rendering="auto" fill-rule="evenodd" font-style="normal" font-variant="normal" font-weight="bold" font-size="12px" font-family="arial,helvetica,sans-serif">Container</text></g></g></g><g class="shapebase"><g transform="matrix(1.00000000,0.00000000,0.00000000,1.00000000,591.00000000,477.00000000)"/><rect fill="rgb(0, 0, 0)" fill-opacity="0" stroke="none" stroke-opacity="0" stroke-width="1" stroke-linecap="butt" stroke-linejoin="miter" stroke-miterlimit="4" x="591" y="477" width="100" height="34" ry="4" rx="4" fill-rule="evenodd"/><g transform="matrix(1.00000000,0.00000000,0.00000000,1.00000000,591.00000000,477.00000000)"><g class="shapebase"><text fill="rgb(204, 51, 0)" fill-opacity="1" stroke="none" stroke-opacity="0" stroke-width="1" stroke-linecap="butt" stroke-linejoin="miter" stroke-miterlimit="4" x="0" y="21" text-anchor="start" text-decoration="none" rotate="0" kerning="auto" text-rendering="auto" fill-rule="evenodd" font-style="normal" font-variant="normal" font-weight="Normal" font-size="12px" font-family="arial,helvetica,sans-serif"><tspan x="0" font-weight="bold">VM/OS</tspan></text></g></g></g><g class="shapebase"><g transform="matrix(1.00000000,0.00000000,0.00000000,1.00000000,591.00000000,606.00000000)"><path fill="rgb(204, 204, 255)" fill-opacity="0" stroke="rgb(51, 0, 255)" stroke-opacity="1" stroke-width="3.0" stroke-linecap="butt" stroke-linejoin="miter" stroke-miterlimit="4" path="" stroke-dasharray="none" d="m99.59190296309183,29.26881934366494c0,4.810975287874417 -4.303271446285786,8.710332960793401 -9.61259013968964,8.710332960793401l-80.33703641259511,0c-5.309318693403854,0 -9.61259013968964,-3.8993576729189847 -9.61259013968964,-8.710332960793401l0,-18.043706595790123c0,-4.810975287874417 4.303271446285786,-8.710332960793401 9.61259013968964,-8.710332960793401l81.70994205183901,-2.488593724047799c5.309858852999622,0 9.613130299285409,5.143889067438901 9.613130299285409,9.954864355313317l-1.373463804159523,19.287748531187916z" fill-rule="evenodd"/></g><rect fill="rgb(0, 0, 0)" fill-opacity="0" stroke="none" stroke-opacity="0" stroke-width="1" stroke-linecap="butt" stroke-linejoin="miter" stroke-miterlimit="4" x="591" y="606" width="101" height="38" ry="0" rx="0" fill-rule="evenodd"/><g transform="matrix(1.00000000,0.00000000,0.00000000,1.00000000,591.00000000,606.00000000)"><g class="shapebase"><text fill="rgb(51, 0, 255)" fill-opacity="1" stroke="none" stroke-opacity="0" stroke-width="1" stroke-linecap="butt" stroke-linejoin="miter" stroke-miterlimit="4" x="50" y="23" text-anchor="middle" text-decoration="none" rotate="0" kerning="auto" text-rendering="auto" fill-rule="evenodd" font-style="normal" font-variant="normal" font-weight="bold" font-size="12px" font-family="arial,helvetica,sans-serif">Container</text></g></g></g><g class="shapebase"><g transform="matrix(1.00000000,0.00000000,0.00000000,1.00000000,591.00000000,558.00000000)"><path fill="rgb(204, 204, 255)" fill-opacity="0" stroke="rgb(51, 0, 255)" stroke-opacity="1" stroke-width="3.0" stroke-linecap="butt" stroke-linejoin="miter" stroke-miterlimit="4" path="" stroke-dasharray="none" d="m99.59190296309183,29.26881934366494c0,4.810975287874417 -4.303271446285786,8.710332960793401 -9.61259013968964,8.710332960793401l-80.33703641259511,0c-5.309318693403854,0 -9.61259013968964,-3.8993576729189847 -9.61259013968964,-8.710332960793401l0,-18.043706595790123c0,-4.810975287874417 4.303271446285786,-8.710332960793401 9.61259013968964,-8.710332960793401l81.70994205183901,-2.488593724047799c5.309858852999622,0 9.613130299285409,5.143889067438901 9.613130299285409,9.954864355313317l-1.373463804159523,19.287748531187916z" fill-rule="evenodd"/></g><rect fill="rgb(0, 0, 0)" fill-opacity="0" stroke="none" stroke-opacity="0" stroke-width="1" stroke-linecap="butt" stroke-linejoin="miter" stroke-miterlimit="4" x="591" y="558" width="101" height="38" ry="0" rx="0" fill-rule="evenodd"/><g transform="matrix(1.00000000,0.00000000,0.00000000,1.00000000,591.00000000,558.00000000)"><g class="shapebase"><text fill="rgb(51, 0, 255)" fill-opacity="1" stroke="none" stroke-opacity="0" stroke-width="1" stroke-linecap="butt" stroke-linejoin="miter" stroke-miterlimit="4" x="50" y="23" text-anchor="middle" text-decoration="none" rotate="0" kerning="auto" text-rendering="auto" fill-rule="evenodd" font-style="normal" font-variant="normal" font-weight="bold" font-size="12px" font-family="arial,helvetica,sans-serif">Container</text></g></g></g><g class="shapebase"><g transform="matrix(1.00000000,0.00000000,0.00000000,1.00000000,591.00000000,511.00000000)"><path fill="rgb(204, 204, 255)" fill-opacity="0" stroke="rgb(51, 0, 255)" stroke-opacity="1" stroke-width="3.0" stroke-linecap="butt" stroke-linejoin="miter" stroke-miterlimit="4" path="" stroke-dasharray="none" d="m99.59190296309183,29.26881934366494c0,4.810975287874417 -4.303271446285786,8.710332960793401 -9.61259013968964,8.710332960793401l-80.33703641259511,0c-5.309318693403854,0 -9.61259013968964,-3.8993576729189847 -9.61259013968964,-8.710332960793401l0,-18.043706595790123c0,-4.810975287874417 4.303271446285786,-8.710332960793401 9.61259013968964,-8.710332960793401l81.70994205183901,-2.488593724047799c5.309858852999622,0 9.613130299285409,5.143889067438901 9.613130299285409,9.954864355313317l-1.373463804159523,19.287748531187916z" fill-rule="evenodd"/></g><rect fill="rgb(0, 0, 0)" fill-opacity="0" stroke="none" stroke-opacity="0" stroke-width="1" stroke-linecap="butt" stroke-linejoin="miter" stroke-miterlimit="4" x="591" y="511" width="101" height="38" ry="0" rx="0" fill-rule="evenodd"/><g transform="matrix(1.00000000,0.00000000,0.00000000,1.00000000,591.00000000,511.00000000)"><g class="shapebase"><text fill="rgb(51, 0, 255)" fill-opacity="1" stroke="none" stroke-opacity="0" stroke-width="1" stroke-linecap="butt" stroke-linejoin="miter" stroke-miterlimit="4" x="50" y="23" text-anchor="middle" text-decoration="none" rotate="0" kerning="auto" text-rendering="auto" fill-rule="evenodd" font-style="normal" font-variant="normal" font-weight="bold" font-size="12px" font-family="arial,helvetica,sans-serif">Container</text></g></g></g></g><g/><g/></g></svg>