<?xml version="1.0" encoding="UTF-8"?>
<svg style="background-color:transparent;" preserveAspectRatio="xMinYMin meet" height="395" width="898" viewBox="261 243 918 415" xmlns:xlink="http://www.w3.org/1999/xlink" xmlns="http://www.w3.org/2000/svg" ><defs><g id="linkshape" class="svglink"><rect width="26" height="25.705463" x="0" y="0" rx="26" style="fill:#fff;stroke:none;"/><path d="m12.96972,3.89162c-1.46202,0.0926 -1.96087,1.3485 -1.97318,2.16807c0.061,1.06359 0.95974,1.43208 1.91556,1.67657c0.86622,0.20718 2.53795,-0.39401 2.58252,-1.25608c0.1196,-2.10236 -0.96772,-2.51327 -2.5249,-2.58856 z" style="fill:none;stroke:#00642A;stroke-width:1.33538628"/><path d="m13.33742,8.10908c-0.00095,4.26823 0.42843,9.17994 0.13576,13.07847" style="fill:none;stroke:#00642A;stroke-width:1.33538628"/><path d="m5.79976,15.83298c1.21269,7.46208 13.76733,8.39403 14.45306,0.22481" style="fill:none;stroke:#00642A;stroke-width:1.33538628"/><path d="m20.53438,12.70151c0.36453,0.65146 1.3076,1.62194 1.50505,2.23541c0.14125,0.40272 0.14865,0.52327 -0.60832,0.50239c-0.84553,0.0577 -2.5409,0.2236 -3.30599,0.13608c-0.42486,-0.124 -0.38393,-0.3733 -0.15689,-0.81348c0.4456,-0.73802 0.83742,-1.23374 1.36025,-2.03069c0.44058,-0.5668 0.8427,-0.6095 1.2059,-0.0297 z" style="fill:none;stroke:#00642A;stroke-width:1.33538628"/><path d="m6.65205,12.98495c0.46781,0.5895 0.69238,0.72549 1.30269,1.52036c0.2394,0.21964 0.28495,0.66561 -0.15744,0.62957c-1.02897,0.0804 -2.31388,0.096 -3.23877,0.112c-0.84264,0.0267 -0.72894,-0.1367 -0.46065,-0.75013c0.29098,-0.54544 0.6673,-0.89767 1.08185,-1.59111c0.54713,-0.81778 0.90943,-0.7521 1.47232,0.0793 z" style="fill:none;stroke:#00642A;stroke-width:1.33538628"/></g><style type="text/css">.svg-txt-center tspan {text-anchor: middle;} .svg-txt-right tspan {text-anchor: end;} svg a {fill: #0088cc;} .dark-shape a {fill:#B8ECFF;}</style></defs><g><g/><g><g class="shapebase"><polyline fill="rgb(255, 255, 255)" fill-opacity="0" stroke="rgb(51, 51, 51)" stroke-opacity="1" stroke-width="2" stroke-linecap="butt" stroke-linejoin="miter" stroke-miterlimit="4" points="0.00000000 0.00000000 546.00000000 398.00000000 0.00000000 0.00000000" fill-rule="evenodd" stroke-dasharray="none" dojoGfxStrokeStyle="solid" style="display: none;"/><path fill="none" fill-opacity="0" stroke="rgb(51, 51, 51)" stroke-opacity="1" stroke-width="2" stroke-linecap="butt" stroke-linejoin="miter" stroke-miterlimit="4" path="" stroke-dasharray="none" d="M465,357 C465,377.5 546,377.5  546,398"/><path fill="none" fill-opacity="0" stroke="rgb(51, 51, 51)" stroke-opacity="0" stroke-width="10" stroke-linecap="butt" stroke-linejoin="miter" stroke-miterlimit="4" path="" stroke-dasharray="none" style="display: none;" d="M465,357 C465,377.5 546,377.5  546,398"/><path fill="rgb(250, 250, 250)" fill-opacity="1" stroke="rgb(51, 51, 51)" stroke-opacity="1" stroke-width="2" stroke-linecap="butt" stroke-linejoin="miter" stroke-miterlimit="4" path="" stroke-dasharray="none" fill-rule="evenodd" style="display: none;"/><path fill="rgb(250, 250, 250)" fill-opacity="1" stroke="rgb(51, 51, 51)" stroke-opacity="1" stroke-width="2" stroke-linecap="butt" stroke-linejoin="miter" stroke-miterlimit="4" path="" fill-rule="evenodd" stroke-dasharray="none" style="display: none;"/></g><g class="shapebase"><polyline fill="rgb(255, 255, 255)" fill-opacity="0" stroke="rgb(51, 51, 51)" stroke-opacity="1" stroke-width="2" stroke-linecap="butt" stroke-linejoin="miter" stroke-miterlimit="4" points="0.00000000 0.00000000 546.00000000 398.00000000 0.00000000 0.00000000" fill-rule="evenodd" stroke-dasharray="none" dojoGfxStrokeStyle="solid" style="display: none;"/><path fill="none" fill-opacity="0" stroke="rgb(51, 51, 51)" stroke-opacity="1" stroke-width="2" stroke-linecap="butt" stroke-linejoin="miter" stroke-miterlimit="4" path="" stroke-dasharray="none" d="M546,357 C546,377.5 546,377.5  546,398"/><path fill="none" fill-opacity="0" stroke="rgb(51, 51, 51)" stroke-opacity="0" stroke-width="10" stroke-linecap="butt" stroke-linejoin="miter" stroke-miterlimit="4" path="" stroke-dasharray="none" style="display: none;" d="M546,357 C546,377.5 546,377.5  546,398"/><path fill="rgb(250, 250, 250)" fill-opacity="1" stroke="rgb(51, 51, 51)" stroke-opacity="1" stroke-width="2" stroke-linecap="butt" stroke-linejoin="miter" stroke-miterlimit="4" path="" stroke-dasharray="none" fill-rule="evenodd" style="display: none;"/><path fill="rgb(250, 250, 250)" fill-opacity="1" stroke="rgb(51, 51, 51)" stroke-opacity="1" stroke-width="2" stroke-linecap="butt" stroke-linejoin="miter" stroke-miterlimit="4" path="" fill-rule="evenodd" stroke-dasharray="none" style="display: none;"/></g><g class="shapebase"><polyline fill="rgb(255, 255, 255)" fill-opacity="0" stroke="rgb(51, 51, 51)" stroke-opacity="1" stroke-width="2" stroke-linecap="butt" stroke-linejoin="miter" stroke-miterlimit="4" points="0.00000000 0.00000000 546.00000000 398.00000000 0.00000000 0.00000000" fill-rule="evenodd" stroke-dasharray="none" dojoGfxStrokeStyle="solid" style="display: none;"/><path fill="none" fill-opacity="0" stroke="rgb(51, 51, 51)" stroke-opacity="1" stroke-width="2" stroke-linecap="butt" stroke-linejoin="miter" stroke-miterlimit="4" path="" stroke-dasharray="none" d="M627,357 C627,377.5 546,377.5  546,398"/><path fill="none" fill-opacity="0" stroke="rgb(51, 51, 51)" stroke-opacity="0" stroke-width="10" stroke-linecap="butt" stroke-linejoin="miter" stroke-miterlimit="4" path="" stroke-dasharray="none" style="display: none;" d="M627,357 C627,377.5 546,377.5  546,398"/><path fill="rgb(250, 250, 250)" fill-opacity="1" stroke="rgb(51, 51, 51)" stroke-opacity="1" stroke-width="2" stroke-linecap="butt" stroke-linejoin="miter" stroke-miterlimit="4" path="" stroke-dasharray="none" fill-rule="evenodd" style="display: none;"/><path fill="rgb(250, 250, 250)" fill-opacity="1" stroke="rgb(51, 51, 51)" stroke-opacity="1" stroke-width="2" stroke-linecap="butt" stroke-linejoin="miter" stroke-miterlimit="4" path="" fill-rule="evenodd" stroke-dasharray="none" style="display: none;"/></g><g class="shapebase"><g transform="matrix(1.00000000,0.00000000,0.00000000,1.00000000,405.00000000,255.00000000)"/><rect fill="rgb(0, 0, 0)" fill-opacity="0" stroke="none" stroke-opacity="0" stroke-width="1" stroke-linecap="butt" stroke-linejoin="miter" stroke-miterlimit="4" x="405" y="255" width="306" height="47" ry="4" rx="4" fill-rule="evenodd"/><g transform="matrix(1.00000000,0.00000000,0.00000000,1.00000000,405.00000000,255.00000000)"><g class="shapebase"><text fill="rgb(51, 51, 51)" fill-opacity="1" stroke="none" stroke-opacity="0" stroke-width="1" stroke-linecap="butt" stroke-linejoin="miter" stroke-miterlimit="4" x="0" y="21" text-anchor="start" text-decoration="none" rotate="0" kerning="auto" text-rendering="auto" fill-rule="evenodd" font-style="normal" font-variant="normal" font-weight="Normal" font-size="12px" font-family="arial,helvetica,sans-serif"><tspan dy="14" font-size="24" font-weight="bold" x="0">Type 1 Native Hypervisor</tspan></text></g></g></g><g class="shapebase"><polyline fill="rgb(255, 255, 255)" fill-opacity="0" stroke="rgb(51, 51, 51)" stroke-opacity="1" stroke-width="2" stroke-linecap="butt" stroke-linejoin="miter" stroke-miterlimit="4" points="0.00000000 0.00000000 1004.00000000 396.00000000 0.00000000 0.00000000" fill-rule="evenodd" stroke-dasharray="none" dojoGfxStrokeStyle="solid" style="display: none;"/><path fill="none" fill-opacity="0" stroke="rgb(51, 51, 51)" stroke-opacity="1" stroke-width="2" stroke-linecap="butt" stroke-linejoin="miter" stroke-miterlimit="4" path="" stroke-dasharray="none" d="M923,355 C923,375.5 1004,375.5  1004,396"/><path fill="none" fill-opacity="0" stroke="rgb(51, 51, 51)" stroke-opacity="0" stroke-width="10" stroke-linecap="butt" stroke-linejoin="miter" stroke-miterlimit="4" path="" stroke-dasharray="none" style="display: none;" d="M923,355 C923,375.5 1004,375.5  1004,396"/><path fill="rgb(250, 250, 250)" fill-opacity="1" stroke="rgb(51, 51, 51)" stroke-opacity="1" stroke-width="2" stroke-linecap="butt" stroke-linejoin="miter" stroke-miterlimit="4" path="" stroke-dasharray="none" fill-rule="evenodd" style="display: none;"/><path fill="rgb(250, 250, 250)" fill-opacity="1" stroke="rgb(51, 51, 51)" stroke-opacity="1" stroke-width="2" stroke-linecap="butt" stroke-linejoin="miter" stroke-miterlimit="4" path="" fill-rule="evenodd" stroke-dasharray="none" style="display: none;"/></g><g class="shapebase"><polyline fill="rgb(255, 255, 255)" fill-opacity="0" stroke="rgb(51, 51, 51)" stroke-opacity="1" stroke-width="2" stroke-linecap="butt" stroke-linejoin="miter" stroke-miterlimit="4" points="0.00000000 0.00000000 1004.00000000 396.00000000 0.00000000 0.00000000" fill-rule="evenodd" stroke-dasharray="none" dojoGfxStrokeStyle="solid" style="display: none;"/><path fill="none" fill-opacity="0" stroke="rgb(51, 51, 51)" stroke-opacity="1" stroke-width="2" stroke-linecap="butt" stroke-linejoin="miter" stroke-miterlimit="4" path="" stroke-dasharray="none" d="M1004,355 C1004,375.5 1004,375.5  1004,396"/><path fill="none" fill-opacity="0" stroke="rgb(51, 51, 51)" stroke-opacity="0" stroke-width="10" stroke-linecap="butt" stroke-linejoin="miter" stroke-miterlimit="4" path="" stroke-dasharray="none" style="display: none;" d="M1004,355 C1004,375.5 1004,375.5  1004,396"/><path fill="rgb(250, 250, 250)" fill-opacity="1" stroke="rgb(51, 51, 51)" stroke-opacity="1" stroke-width="2" stroke-linecap="butt" stroke-linejoin="miter" stroke-miterlimit="4" path="" stroke-dasharray="none" fill-rule="evenodd" style="display: none;"/><path fill="rgb(250, 250, 250)" fill-opacity="1" stroke="rgb(51, 51, 51)" stroke-opacity="1" stroke-width="2" stroke-linecap="butt" stroke-linejoin="miter" stroke-miterlimit="4" path="" fill-rule="evenodd" stroke-dasharray="none" style="display: none;"/></g><g class="shapebase"><polyline fill="rgb(255, 255, 255)" fill-opacity="0" stroke="rgb(51, 51, 51)" stroke-opacity="1" stroke-width="2" stroke-linecap="butt" stroke-linejoin="miter" stroke-miterlimit="4" points="0.00000000 0.00000000 1004.00000000 396.00000000 0.00000000 0.00000000" fill-rule="evenodd" stroke-dasharray="none" dojoGfxStrokeStyle="solid" style="display: none;"/><path fill="none" fill-opacity="0" stroke="rgb(51, 51, 51)" stroke-opacity="1" stroke-width="2" stroke-linecap="butt" stroke-linejoin="miter" stroke-miterlimit="4" path="" stroke-dasharray="none" d="M1085,355 C1085,375.5 1004,375.5  1004,396"/><path fill="none" fill-opacity="0" stroke="rgb(51, 51, 51)" stroke-opacity="0" stroke-width="10" stroke-linecap="butt" stroke-linejoin="miter" stroke-miterlimit="4" path="" stroke-dasharray="none" style="display: none;" d="M1085,355 C1085,375.5 1004,375.5  1004,396"/><path fill="rgb(250, 250, 250)" fill-opacity="1" stroke="rgb(51, 51, 51)" stroke-opacity="1" stroke-width="2" stroke-linecap="butt" stroke-linejoin="miter" stroke-miterlimit="4" path="" stroke-dasharray="none" fill-rule="evenodd" style="display: none;"/><path fill="rgb(250, 250, 250)" fill-opacity="1" stroke="rgb(51, 51, 51)" stroke-opacity="1" stroke-width="2" stroke-linecap="butt" stroke-linejoin="miter" stroke-miterlimit="4" path="" fill-rule="evenodd" stroke-dasharray="none" style="display: none;"/></g><g class="shapebase"><g transform="matrix(1.00000000,0.00000000,0.00000000,1.00000000,863.00000000,253.00000000)"/><rect fill="rgb(0, 0, 0)" fill-opacity="0" stroke="none" stroke-opacity="0" stroke-width="1" stroke-linecap="butt" stroke-linejoin="miter" stroke-miterlimit="4" x="863" y="253" width="306" height="47" ry="4" rx="4" fill-rule="evenodd"/><g transform="matrix(1.00000000,0.00000000,0.00000000,1.00000000,863.00000000,253.00000000)"><g class="shapebase"><text fill="rgb(51, 51, 51)" fill-opacity="1" stroke="none" stroke-opacity="0" stroke-width="1" stroke-linecap="butt" stroke-linejoin="miter" stroke-miterlimit="4" x="0" y="21" text-anchor="start" text-decoration="none" rotate="0" kerning="auto" text-rendering="auto" fill-rule="evenodd" font-style="normal" font-variant="normal" font-weight="Normal" font-size="12px" font-family="arial,helvetica,sans-serif"><tspan dy="14" font-size="24" font-weight="bold" x="0">Type 2 Hosted Hypervisor</tspan></text></g></g></g><g class="shapebase"><g transform="matrix(1.00000000,0.00000000,0.00000000,1.00000000,511.00000000,487.00000000)"><path fill="rgb(204, 204, 255)" fill-opacity="0" stroke="rgb(51, 51, 51)" stroke-opacity="1" stroke-width="3.0" stroke-linecap="butt" stroke-linejoin="miter" stroke-miterlimit="4" path="" stroke-dasharray="none" d="m0.5649990097555054,37.98304432258343l70.41694787480755,-0.6027196110315728l0,-34.780918156755654l-8.66622116312202,0l-0.5425006548391013,-7.4243914042074035l-10.832957892248622,0l-1.0835570604432463,6.821671793175832l-25.45834009468015,0.6027196110315728l-2.1663847387351707,-5.616636268106009l-9.20835894126892,0l-1.0835570604432463,5.616636268106009l-11.916870571850225,0z" fill-rule="evenodd"/></g><rect fill="rgb(0, 0, 0)" fill-opacity="0" stroke="none" stroke-opacity="0" stroke-width="1" stroke-linecap="butt" stroke-linejoin="miter" stroke-miterlimit="4" x="511" y="487" width="71" height="38" ry="0" rx="0" fill-rule="evenodd"/><g transform="matrix(1.00000000,0.00000000,0.00000000,1.00000000,511.00000000,487.00000000)"><g class="shapebase"><text fill="rgb(51, 51, 51)" fill-opacity="1" stroke="none" stroke-opacity="0" stroke-width="1" stroke-linecap="butt" stroke-linejoin="miter" stroke-miterlimit="4" x="35" y="23" text-anchor="middle" text-decoration="none" rotate="0" kerning="auto" text-rendering="auto" fill-rule="evenodd" font-style="normal" font-variant="normal" font-weight="bold" font-size="12px" font-family="arial,helvetica,sans-serif">Hardware</text></g></g></g><g class="shapebase"><g transform="matrix(1.00000000,0.00000000,0.00000000,1.00000000,969.00000000,579.00000000)"><path fill="rgb(204, 204, 255)" fill-opacity="0" stroke="rgb(51, 51, 51)" stroke-opacity="1" stroke-width="3.0" stroke-linecap="butt" stroke-linejoin="miter" stroke-miterlimit="4" path="" stroke-dasharray="none" d="m0.5649990097555054,37.98304432258343l70.41694787480755,-0.6027196110315728l0,-34.780918156755654l-8.66622116312202,0l-0.5425006548391013,-7.4243914042074035l-10.832957892248622,0l-1.0835570604432463,6.821671793175832l-25.45834009468015,0.6027196110315728l-2.1663847387351707,-5.616636268106009l-9.20835894126892,0l-1.0835570604432463,5.616636268106009l-11.916870571850225,0z" fill-rule="evenodd"/></g><rect fill="rgb(0, 0, 0)" fill-opacity="0" stroke="none" stroke-opacity="0" stroke-width="1" stroke-linecap="butt" stroke-linejoin="miter" stroke-miterlimit="4" x="969" y="579" width="71" height="38" ry="0" rx="0" fill-rule="evenodd"/><g transform="matrix(1.00000000,0.00000000,0.00000000,1.00000000,969.00000000,579.00000000)"><g class="shapebase"><text fill="rgb(51, 51, 51)" fill-opacity="1" stroke="none" stroke-opacity="0" stroke-width="1" stroke-linecap="butt" stroke-linejoin="miter" stroke-miterlimit="4" x="35" y="23" text-anchor="middle" text-decoration="none" rotate="0" kerning="auto" text-rendering="auto" fill-rule="evenodd" font-style="normal" font-variant="normal" font-weight="bold" font-size="12px" font-family="arial,helvetica,sans-serif">Hardware</text></g></g></g><g class="shapebase"><g transform="matrix(1.00000000,0.00000000,0.00000000,1.00000000,951.00000000,398.00000000)"><path fill="rgb(204, 204, 255)" fill-opacity="0" stroke="rgb(255, 0, 0)" stroke-opacity="1" stroke-width="3.0" stroke-linecap="butt" stroke-linejoin="miter" stroke-miterlimit="4" path="" stroke-dasharray="none" d="m105.50825363416658,29.26881934366494c0,4.810975287874417 -4.558911334183951,8.710332960793401 -10.183635098483084,8.710332960793401l-85.10953362522451,0c-5.624723764299132,0 -10.183635098483084,-3.8993576729189847 -10.183635098483084,-8.710332960793401l0,-18.043706595790123c0,-4.810975287874417 4.558911334183951,-8.710332960793401 10.183635098483084,-8.710332960793401l86.5639980153146,-2.488593724047799c5.625296012583758,0 10.184207346767709,5.143889067438901 10.184207346767709,9.954864355313317l-1.4550557133175144,19.287748531187916z" fill-rule="evenodd"/></g><rect fill="rgb(0, 0, 0)" fill-opacity="0" stroke="none" stroke-opacity="0" stroke-width="1" stroke-linecap="butt" stroke-linejoin="miter" stroke-miterlimit="4" x="951" y="398" width="107" height="38" ry="0" rx="0" fill-rule="evenodd"/><g transform="matrix(1.00000000,0.00000000,0.00000000,1.00000000,951.00000000,398.00000000)"><g class="shapebase"><text fill="rgb(51, 51, 51)" fill-opacity="1" stroke="none" stroke-opacity="0" stroke-width="1" stroke-linecap="butt" stroke-linejoin="miter" stroke-miterlimit="4" x="53" y="23" text-anchor="middle" text-decoration="none" rotate="0" kerning="auto" text-rendering="auto" fill-rule="evenodd" font-style="normal" font-variant="normal" font-weight="bold" font-size="12px" font-family="arial,helvetica,sans-serif">Hypervisor</text></g></g></g><g class="shapebase"><g transform="matrix(1.00000000,0.00000000,0.00000000,1.00000000,887.00000000,317.00000000)"><path fill="rgb(204, 204, 255)" fill-opacity="0" stroke="rgb(51, 0, 255)" stroke-opacity="1" stroke-width="3.0" stroke-linecap="butt" stroke-linejoin="miter" stroke-miterlimit="4" path="" stroke-dasharray="none" d="m70.99620805289715,27.728355167682576c0,4.557766062196816 -3.067678654777986,8.251894383909539 -6.852539505521327,8.251894383909539l-57.26996655155295,0c-3.784860850743341,0 -6.852539505521327,-3.6941283217127223 -6.852539505521327,-8.251894383909539l0,-17.094037827590643c0,-4.557766062196816 3.067678654777986,-8.251894383909539 6.852539505521327,-8.251894383909539l58.24867156170702,-2.357615106992651c3.7852459150096314,0 6.852924569787618,4.873158063889486 6.852924569787618,9.430924126086301l-0.9791029098958977,18.27260387165171z" fill-rule="evenodd"/></g><rect fill="rgb(0, 0, 0)" fill-opacity="0" stroke="none" stroke-opacity="0" stroke-width="1" stroke-linecap="butt" stroke-linejoin="miter" stroke-miterlimit="4" x="887" y="317" width="72" height="36" ry="0" rx="0" fill-rule="evenodd"/><g transform="matrix(1.00000000,0.00000000,0.00000000,1.00000000,887.00000000,317.00000000)"><g class="shapebase"><text fill="rgb(51, 51, 51)" fill-opacity="1" stroke="none" stroke-opacity="0" stroke-width="1" stroke-linecap="butt" stroke-linejoin="miter" stroke-miterlimit="4" x="36" y="22" text-anchor="middle" text-decoration="none" rotate="0" kerning="auto" text-rendering="auto" fill-rule="evenodd" font-style="normal" font-variant="normal" font-weight="bold" font-size="12px" font-family="arial,helvetica,sans-serif">VM/OS</text></g></g></g><g class="shapebase"><g transform="matrix(1.00000000,0.00000000,0.00000000,1.00000000,968.00000000,317.00000000)"><path fill="rgb(204, 204, 255)" fill-opacity="0" stroke="rgb(51, 0, 255)" stroke-opacity="1" stroke-width="3.0" stroke-linecap="butt" stroke-linejoin="miter" stroke-miterlimit="4" path="" stroke-dasharray="none" d="m70.99620805289715,27.728355167682576c0,4.557766062196816 -3.067678654777986,8.251894383909539 -6.852539505521327,8.251894383909539l-57.26996655155295,0c-3.784860850743341,0 -6.852539505521327,-3.6941283217127223 -6.852539505521327,-8.251894383909539l0,-17.094037827590643c0,-4.557766062196816 3.067678654777986,-8.251894383909539 6.852539505521327,-8.251894383909539l58.24867156170702,-2.357615106992651c3.7852459150096314,0 6.852924569787618,4.873158063889486 6.852924569787618,9.430924126086301l-0.9791029098958977,18.27260387165171z" fill-rule="evenodd"/></g><rect fill="rgb(0, 0, 0)" fill-opacity="0" stroke="none" stroke-opacity="0" stroke-width="1" stroke-linecap="butt" stroke-linejoin="miter" stroke-miterlimit="4" x="968" y="317" width="72" height="36" ry="0" rx="0" fill-rule="evenodd"/><g transform="matrix(1.00000000,0.00000000,0.00000000,1.00000000,968.00000000,317.00000000)"><g class="shapebase"><text fill="rgb(51, 51, 51)" fill-opacity="1" stroke="none" stroke-opacity="0" stroke-width="1" stroke-linecap="butt" stroke-linejoin="miter" stroke-miterlimit="4" x="36" y="22" text-anchor="middle" text-decoration="none" rotate="0" kerning="auto" text-rendering="auto" fill-rule="evenodd" font-style="normal" font-variant="normal" font-weight="bold" font-size="12px" font-family="arial,helvetica,sans-serif">VM/OS</text></g></g></g><g class="shapebase"><g transform="matrix(1.00000000,0.00000000,0.00000000,1.00000000,1049.00000000,317.00000000)"><path fill="rgb(204, 204, 255)" fill-opacity="0" stroke="rgb(51, 0, 255)" stroke-opacity="1" stroke-width="3.0" stroke-linecap="butt" stroke-linejoin="miter" stroke-miterlimit="4" path="" stroke-dasharray="none" d="m70.99620805289715,27.728355167682576c0,4.557766062196816 -3.067678654777986,8.251894383909539 -6.852539505521327,8.251894383909539l-57.26996655155295,0c-3.784860850743341,0 -6.852539505521327,-3.6941283217127223 -6.852539505521327,-8.251894383909539l0,-17.094037827590643c0,-4.557766062196816 3.067678654777986,-8.251894383909539 6.852539505521327,-8.251894383909539l58.24867156170702,-2.357615106992651c3.7852459150096314,0 6.852924569787618,4.873158063889486 6.852924569787618,9.430924126086301l-0.9791029098958977,18.27260387165171z" fill-rule="evenodd"/></g><rect fill="rgb(0, 0, 0)" fill-opacity="0" stroke="none" stroke-opacity="0" stroke-width="1" stroke-linecap="butt" stroke-linejoin="miter" stroke-miterlimit="4" x="1049" y="317" width="72" height="36" ry="0" rx="0" fill-rule="evenodd"/><g transform="matrix(1.00000000,0.00000000,0.00000000,1.00000000,1049.00000000,317.00000000)"><g class="shapebase"><text fill="rgb(51, 51, 51)" fill-opacity="1" stroke="none" stroke-opacity="0" stroke-width="1" stroke-linecap="butt" stroke-linejoin="miter" stroke-miterlimit="4" x="36" y="22" text-anchor="middle" text-decoration="none" rotate="0" kerning="auto" text-rendering="auto" fill-rule="evenodd" font-style="normal" font-variant="normal" font-weight="bold" font-size="12px" font-family="arial,helvetica,sans-serif">VM/OS</text></g></g></g><g class="shapebase"><g transform="matrix(1.00000000,0.00000000,0.00000000,1.00000000,968.00000000,487.00000000)"><path fill="rgb(204, 204, 255)" fill-opacity="0" stroke="rgb(51, 0, 255)" stroke-opacity="1" stroke-width="3.0" stroke-linecap="butt" stroke-linejoin="miter" stroke-miterlimit="4" path="" stroke-dasharray="none" d="m70.99620805289715,27.728355167682576c0,4.557766062196816 -3.067678654777986,8.251894383909539 -6.852539505521327,8.251894383909539l-57.26996655155295,0c-3.784860850743341,0 -6.852539505521327,-3.6941283217127223 -6.852539505521327,-8.251894383909539l0,-17.094037827590643c0,-4.557766062196816 3.067678654777986,-8.251894383909539 6.852539505521327,-8.251894383909539l58.24867156170702,-2.357615106992651c3.7852459150096314,0 6.852924569787618,4.873158063889486 6.852924569787618,9.430924126086301l-0.9791029098958977,18.27260387165171z" fill-rule="evenodd"/></g><rect fill="rgb(0, 0, 0)" fill-opacity="0" stroke="none" stroke-opacity="0" stroke-width="1" stroke-linecap="butt" stroke-linejoin="miter" stroke-miterlimit="4" x="968" y="487" width="72" height="36" ry="0" rx="0" fill-rule="evenodd"/><g transform="matrix(1.00000000,0.00000000,0.00000000,1.00000000,968.00000000,487.00000000)"><g class="shapebase"><text fill="rgb(51, 51, 51)" fill-opacity="1" stroke="none" stroke-opacity="0" stroke-width="1" stroke-linecap="butt" stroke-linejoin="miter" stroke-miterlimit="4" x="36" y="22" text-anchor="middle" text-decoration="none" rotate="0" kerning="auto" text-rendering="auto" fill-rule="evenodd" font-style="normal" font-variant="normal" font-weight="bold" font-size="12px" font-family="arial,helvetica,sans-serif">OS</text></g></g></g><g class="shapebase"><polyline fill="rgb(255, 255, 255)" fill-opacity="0" stroke="rgb(51, 51, 51)" stroke-opacity="1" stroke-width="2" stroke-linecap="butt" stroke-linejoin="miter" stroke-miterlimit="4" points="0.00000000 0.00000000 1004.00000000 485.00000000 0.00000000 0.00000000" fill-rule="evenodd" stroke-dasharray="none" dojoGfxStrokeStyle="solid" style="display: none;"/><path fill="none" fill-opacity="0" stroke="rgb(51, 51, 51)" stroke-opacity="1" stroke-width="2" stroke-linecap="butt" stroke-linejoin="miter" stroke-miterlimit="4" path="" stroke-dasharray="none" d="M1004,438 C1004,461.5 1004,461.5  1004,485"/><path fill="none" fill-opacity="0" stroke="rgb(51, 51, 51)" stroke-opacity="0" stroke-width="10" stroke-linecap="butt" stroke-linejoin="miter" stroke-miterlimit="4" path="" stroke-dasharray="none" style="display: none;" d="M1004,438 C1004,461.5 1004,461.5  1004,485"/><path fill="rgb(250, 250, 250)" fill-opacity="1" stroke="rgb(51, 51, 51)" stroke-opacity="1" stroke-width="2" stroke-linecap="butt" stroke-linejoin="miter" stroke-miterlimit="4" path="" stroke-dasharray="none" fill-rule="evenodd" style="display: none;"/><path fill="rgb(250, 250, 250)" fill-opacity="1" stroke="rgb(51, 51, 51)" stroke-opacity="1" stroke-width="2" stroke-linecap="butt" stroke-linejoin="miter" stroke-miterlimit="4" path="" fill-rule="evenodd" stroke-dasharray="none" style="display: none;"/></g><g class="shapebase"><polyline fill="rgb(255, 255, 255)" fill-opacity="0" stroke="rgb(51, 51, 51)" stroke-opacity="1" stroke-width="2" stroke-linecap="butt" stroke-linejoin="miter" stroke-miterlimit="4" points="0.00000000 0.00000000 1004.00000000 577.00000000 0.00000000 0.00000000" fill-rule="evenodd" stroke-dasharray="none" dojoGfxStrokeStyle="solid" style="display: none;"/><path fill="none" fill-opacity="0" stroke="rgb(51, 51, 51)" stroke-opacity="1" stroke-width="2" stroke-linecap="butt" stroke-linejoin="miter" stroke-miterlimit="4" path="" stroke-dasharray="none" d="M1004,525 C1004,551 1004,551  1004,577"/><path fill="none" fill-opacity="0" stroke="rgb(51, 51, 51)" stroke-opacity="0" stroke-width="10" stroke-linecap="butt" stroke-linejoin="miter" stroke-miterlimit="4" path="" stroke-dasharray="none" style="display: none;" d="M1004,525 C1004,551 1004,551  1004,577"/><path fill="rgb(250, 250, 250)" fill-opacity="1" stroke="rgb(51, 51, 51)" stroke-opacity="1" stroke-width="2" stroke-linecap="butt" stroke-linejoin="miter" stroke-miterlimit="4" path="" stroke-dasharray="none" fill-rule="evenodd" style="display: none;"/><path fill="rgb(250, 250, 250)" fill-opacity="1" stroke="rgb(51, 51, 51)" stroke-opacity="1" stroke-width="2" stroke-linecap="butt" stroke-linejoin="miter" stroke-miterlimit="4" path="" fill-rule="evenodd" stroke-dasharray="none" style="display: none;"/></g><g class="shapebase"><g transform="matrix(1.00000000,0.00000000,0.00000000,1.00000000,271.00000000,403.00000000)"><path fill="rgb(204, 204, 255)" fill-opacity="0" stroke="rgb(0, 204, 51)" stroke-opacity="1" stroke-width="3.0" stroke-linecap="butt" stroke-linejoin="miter" stroke-miterlimit="4" path="" stroke-dasharray="none" d="m0,0.2878589007383101l195.20299492856452,-1.7316201804758l1.723623060103863,112.30648072190321l-195.97090016332584,-0.34588187038556195z" fill-rule="evenodd"/><path fill="rgb(0, 204, 51)" fill-opacity="1" stroke="rgb(0, 204, 51)" stroke-opacity="1" stroke-width="3.0" stroke-linecap="butt" stroke-linejoin="miter" stroke-miterlimit="4" path="" stroke-dasharray="none" style="stroke:none;" d="m78.248274,-6.1981l38.0093,-2.40741l-0.603966,2.40741l3.76254,0.531494l-2.13063,2.4458l-1.31318,1.85211l3.61304,0l-2.87453,2.84827l2.21614,2.70691l-40.9795,2.25l0.300789,-2.40662l-2.71546,-0.902466l3.31823,-1.50378l-3.85104,-3.49121l3.36488,-1.28223l-2.0523,-1.42377l1.93569,-1.62451z" fill-rule="evenodd"/></g><rect fill="rgb(0, 0, 0)" fill-opacity="0" stroke="none" stroke-opacity="0" stroke-width="1" stroke-linecap="butt" stroke-linejoin="miter" stroke-miterlimit="4" x="271" y="403" width="195" height="110" ry="0" rx="0" fill-rule="evenodd"/><g transform="matrix(1.00000000,0.00000000,0.00000000,1.00000000,271.00000000,403.00000000)"><g class="shapebase"><text fill="rgb(0, 102, 0)" fill-opacity="1" stroke="none" stroke-opacity="0" stroke-width="1" stroke-linecap="butt" stroke-linejoin="miter" stroke-miterlimit="4" x="15" y="26" text-anchor="start" text-decoration="none" rotate="0" kerning="auto" text-rendering="auto" fill-rule="evenodd" font-style="normal" font-variant="normal" font-weight="Normal" font-size="12px" font-family="arial,helvetica,sans-serif"><tspan dy="8" font-size="18" font-weight="bold" x="15">Type 1 Examples</tspan><tspan x="15" dx="7" dy="22">●    Xen</tspan><tspan x="15" dx="7" dy="20">●    Hyper-V</tspan><tspan x="15" dx="7" dy="20">●    VMWare ESX(i)</tspan></text></g></g></g><g class="shapebase"><g transform="matrix(1.00000000,0.00000000,0.00000000,1.00000000,493.00000000,400.00000000)"><path fill="rgb(204, 204, 255)" fill-opacity="0" stroke="rgb(255, 0, 0)" stroke-opacity="1" stroke-width="3.0" stroke-linecap="butt" stroke-linejoin="miter" stroke-miterlimit="4" path="" stroke-dasharray="none" d="m105.50825363416658,29.26881934366494c0,4.810975287874417 -4.558911334183951,8.710332960793401 -10.183635098483084,8.710332960793401l-85.10953362522451,0c-5.624723764299132,0 -10.183635098483084,-3.8993576729189847 -10.183635098483084,-8.710332960793401l0,-18.043706595790123c0,-4.810975287874417 4.558911334183951,-8.710332960793401 10.183635098483084,-8.710332960793401l86.5639980153146,-2.488593724047799c5.625296012583758,0 10.184207346767709,5.143889067438901 10.184207346767709,9.954864355313317l-1.4550557133175144,19.287748531187916z" fill-rule="evenodd"/></g><rect fill="rgb(0, 0, 0)" fill-opacity="0" stroke="none" stroke-opacity="0" stroke-width="1" stroke-linecap="butt" stroke-linejoin="miter" stroke-miterlimit="4" x="493" y="400" width="107" height="38" ry="0" rx="0" fill-rule="evenodd"/><g transform="matrix(1.00000000,0.00000000,0.00000000,1.00000000,493.00000000,400.00000000)"><g class="shapebase"><text fill="rgb(51, 51, 51)" fill-opacity="1" stroke="none" stroke-opacity="0" stroke-width="1" stroke-linecap="butt" stroke-linejoin="miter" stroke-miterlimit="4" x="53" y="23" text-anchor="middle" text-decoration="none" rotate="0" kerning="auto" text-rendering="auto" fill-rule="evenodd" font-style="normal" font-variant="normal" font-weight="bold" font-size="12px" font-family="arial,helvetica,sans-serif">Hypervisor</text></g></g></g><g class="shapebase"><g transform="matrix(1.00000000,0.00000000,0.00000000,1.00000000,732.00000000,402.00000000)"><path fill="rgb(204, 204, 255)" fill-opacity="0" stroke="rgb(0, 204, 51)" stroke-opacity="1" stroke-width="3.0" stroke-linecap="butt" stroke-linejoin="miter" stroke-miterlimit="4" path="" stroke-dasharray="none" d="m0,0.3401968826907301l195.20299492856452,-2.046460213289582l1.723623060103863,132.72584085315836l-195.97090016332584,-0.40876948318293693z" fill-rule="evenodd"/><path fill="rgb(0, 204, 51)" fill-opacity="1" stroke="rgb(0, 204, 51)" stroke-opacity="1" stroke-width="3.0" stroke-linecap="butt" stroke-linejoin="miter" stroke-miterlimit="4" path="" stroke-dasharray="none" style="stroke:none;" d="m78.248274,-6.1981l38.0093,-2.40741l-0.603966,2.40741l3.76254,0.531494l-2.13063,2.4458l-1.31318,1.85211l3.61304,0l-2.87453,2.84827l2.21614,2.70691l-40.9795,2.25l0.300789,-2.40662l-2.71546,-0.902466l3.31823,-1.50378l-3.85104,-3.49121l3.36488,-1.28223l-2.0523,-1.42377l1.93569,-1.62451z" fill-rule="evenodd"/></g><rect fill="rgb(0, 0, 0)" fill-opacity="0" stroke="none" stroke-opacity="0" stroke-width="1" stroke-linecap="butt" stroke-linejoin="miter" stroke-miterlimit="4" x="732" y="402" width="195" height="130" ry="0" rx="0" fill-rule="evenodd"/><g transform="matrix(1.00000000,0.00000000,0.00000000,1.00000000,732.00000000,402.00000000)"><g class="shapebase"><text fill="rgb(0, 102, 0)" fill-opacity="1" stroke="none" stroke-opacity="0" stroke-width="1" stroke-linecap="butt" stroke-linejoin="miter" stroke-miterlimit="4" x="15" y="26" text-anchor="start" text-decoration="none" rotate="0" kerning="auto" text-rendering="auto" fill-rule="evenodd" font-style="normal" font-variant="normal" font-weight="Normal" font-size="12px" font-family="arial,helvetica,sans-serif"><tspan dy="8" font-size="18" font-weight="bold" x="15">Type 2 Examples</tspan><tspan x="15" dx="7" dy="22">●    VMWare</tspan><tspan x="15" dx="7" dy="20">●    Parallels</tspan><tspan x="15" dx="7" dy="20">●    VirtualBox</tspan><tspan x="15" dx="7" dy="20">●    QEMU</tspan></text></g></g></g><g class="shapebase"><g transform="matrix(1.00000000,0.00000000,0.00000000,1.00000000,403.00000000,558.00000000)"><path fill="rgb(204, 204, 255)" fill-opacity="0" stroke="rgb(255, 102, 0)" stroke-opacity="1" stroke-width="3.0" stroke-linecap="butt" stroke-linejoin="miter" stroke-miterlimit="4" path="" stroke-dasharray="none" d="m0,0.23552091878589007l406.4226458512677,-1.4167801476620183l3.588671602062402,91.88712059064808l-408.02146392979637,-0.2829942575881871z" fill-rule="evenodd"/><path fill="rgb(255, 102, 0)" fill-opacity="1" stroke="rgb(255, 102, 0)" stroke-opacity="1" stroke-width="3.0" stroke-linecap="butt" stroke-linejoin="miter" stroke-miterlimit="4" path="" stroke-dasharray="none" style="stroke:none;" d="m183.248274,-6.1981l38.0093,-2.40741l-0.603966,2.40741l3.76254,0.531494l-2.13063,2.4458l-1.31318,1.85211l3.61304,0l-2.87453,2.84827l2.21614,2.70691l-40.9795,2.25l0.300789,-2.40662l-2.71546,-0.902466l3.31823,-1.50378l-3.85104,-3.49121l3.36488,-1.28223l-2.0523,-1.42377l1.93569,-1.62451z" fill-rule="evenodd"/></g><rect fill="rgb(0, 0, 0)" fill-opacity="0" stroke="none" stroke-opacity="0" stroke-width="1" stroke-linecap="butt" stroke-linejoin="miter" stroke-miterlimit="4" x="403" y="558" width="406" height="90" ry="0" rx="0" fill-rule="evenodd"/><g transform="matrix(1.00000000,0.00000000,0.00000000,1.00000000,403.00000000,558.00000000)"><g class="shapebase"><text fill="rgb(255, 51, 0)" fill-opacity="1" stroke="none" stroke-opacity="0" stroke-width="1" stroke-linecap="butt" stroke-linejoin="miter" stroke-miterlimit="4" x="15" y="26" text-anchor="start" text-decoration="none" rotate="0" kerning="auto" text-rendering="auto" fill-rule="evenodd" font-style="normal" font-variant="normal" font-weight="Normal" font-size="12px" font-family="arial,helvetica,sans-serif"><tspan dy="8" font-size="18" font-weight="bold" x="15">A bit complicated</tspan><tspan x="15" dx="7" dy="22">●    KVM - can be type 1 or 2</tspan><tspan x="15" dx="7" dy="20">●    Hyper-V really is type 1</tspan></text></g></g></g><g class="shapebase"><g transform="matrix(1.00000000,0.00000000,0.00000000,1.00000000,429.00000000,319.00000000)"><path fill="rgb(204, 204, 255)" fill-opacity="0" stroke="rgb(51, 0, 255)" stroke-opacity="1" stroke-width="3.0" stroke-linecap="butt" stroke-linejoin="miter" stroke-miterlimit="4" path="" stroke-dasharray="none" d="m70.99620805289715,27.728355167682576c0,4.557766062196816 -3.067678654777986,8.251894383909539 -6.852539505521327,8.251894383909539l-57.26996655155295,0c-3.784860850743341,0 -6.852539505521327,-3.6941283217127223 -6.852539505521327,-8.251894383909539l0,-17.094037827590643c0,-4.557766062196816 3.067678654777986,-8.251894383909539 6.852539505521327,-8.251894383909539l58.24867156170702,-2.357615106992651c3.7852459150096314,0 6.852924569787618,4.873158063889486 6.852924569787618,9.430924126086301l-0.9791029098958977,18.27260387165171z" fill-rule="evenodd"/></g><rect fill="rgb(0, 0, 0)" fill-opacity="0" stroke="none" stroke-opacity="0" stroke-width="1" stroke-linecap="butt" stroke-linejoin="miter" stroke-miterlimit="4" x="429" y="319" width="72" height="36" ry="0" rx="0" fill-rule="evenodd"/><g transform="matrix(1.00000000,0.00000000,0.00000000,1.00000000,429.00000000,319.00000000)"><g class="shapebase"><text fill="rgb(51, 51, 51)" fill-opacity="1" stroke="none" stroke-opacity="0" stroke-width="1" stroke-linecap="butt" stroke-linejoin="miter" stroke-miterlimit="4" x="36" y="22" text-anchor="middle" text-decoration="none" rotate="0" kerning="auto" text-rendering="auto" fill-rule="evenodd" font-style="normal" font-variant="normal" font-weight="bold" font-size="12px" font-family="arial,helvetica,sans-serif">VM/OS</text></g></g></g><g class="shapebase"><g transform="matrix(1.00000000,0.00000000,0.00000000,1.00000000,510.00000000,319.00000000)"><path fill="rgb(204, 204, 255)" fill-opacity="0" stroke="rgb(51, 0, 255)" stroke-opacity="1" stroke-width="3.0" stroke-linecap="butt" stroke-linejoin="miter" stroke-miterlimit="4" path="" stroke-dasharray="none" d="m70.99620805289715,27.728355167682576c0,4.557766062196816 -3.067678654777986,8.251894383909539 -6.852539505521327,8.251894383909539l-57.26996655155295,0c-3.784860850743341,0 -6.852539505521327,-3.6941283217127223 -6.852539505521327,-8.251894383909539l0,-17.094037827590643c0,-4.557766062196816 3.067678654777986,-8.251894383909539 6.852539505521327,-8.251894383909539l58.24867156170702,-2.357615106992651c3.7852459150096314,0 6.852924569787618,4.873158063889486 6.852924569787618,9.430924126086301l-0.9791029098958977,18.27260387165171z" fill-rule="evenodd"/></g><rect fill="rgb(0, 0, 0)" fill-opacity="0" stroke="none" stroke-opacity="0" stroke-width="1" stroke-linecap="butt" stroke-linejoin="miter" stroke-miterlimit="4" x="510" y="319" width="72" height="36" ry="0" rx="0" fill-rule="evenodd"/><g transform="matrix(1.00000000,0.00000000,0.00000000,1.00000000,510.00000000,319.00000000)"><g class="shapebase"><text fill="rgb(51, 51, 51)" fill-opacity="1" stroke="none" stroke-opacity="0" stroke-width="1" stroke-linecap="butt" stroke-linejoin="miter" stroke-miterlimit="4" x="36" y="22" text-anchor="middle" text-decoration="none" rotate="0" kerning="auto" text-rendering="auto" fill-rule="evenodd" font-style="normal" font-variant="normal" font-weight="bold" font-size="12px" font-family="arial,helvetica,sans-serif">VM/OS</text></g></g></g><g class="shapebase"><g transform="matrix(1.00000000,0.00000000,0.00000000,1.00000000,591.00000000,319.00000000)"><path fill="rgb(204, 204, 255)" fill-opacity="0" stroke="rgb(51, 0, 255)" stroke-opacity="1" stroke-width="3.0" stroke-linecap="butt" stroke-linejoin="miter" stroke-miterlimit="4" path="" stroke-dasharray="none" d="m70.99620805289715,27.728355167682576c0,4.557766062196816 -3.067678654777986,8.251894383909539 -6.852539505521327,8.251894383909539l-57.26996655155295,0c-3.784860850743341,0 -6.852539505521327,-3.6941283217127223 -6.852539505521327,-8.251894383909539l0,-17.094037827590643c0,-4.557766062196816 3.067678654777986,-8.251894383909539 6.852539505521327,-8.251894383909539l58.24867156170702,-2.357615106992651c3.7852459150096314,0 6.852924569787618,4.873158063889486 6.852924569787618,9.430924126086301l-0.9791029098958977,18.27260387165171z" fill-rule="evenodd"/></g><rect fill="rgb(0, 0, 0)" fill-opacity="0" stroke="none" stroke-opacity="0" stroke-width="1" stroke-linecap="butt" stroke-linejoin="miter" stroke-miterlimit="4" x="591" y="319" width="72" height="36" ry="0" rx="0" fill-rule="evenodd"/><g transform="matrix(1.00000000,0.00000000,0.00000000,1.00000000,591.00000000,319.00000000)"><g class="shapebase"><text fill="rgb(51, 51, 51)" fill-opacity="1" stroke="none" stroke-opacity="0" stroke-width="1" stroke-linecap="butt" stroke-linejoin="miter" stroke-miterlimit="4" x="36" y="22" text-anchor="middle" text-decoration="none" rotate="0" kerning="auto" text-rendering="auto" fill-rule="evenodd" font-style="normal" font-variant="normal" font-weight="bold" font-size="12px" font-family="arial,helvetica,sans-serif">VM/OS</text></g></g></g><g class="shapebase"><polyline fill="rgb(255, 255, 255)" fill-opacity="0" stroke="rgb(51, 51, 51)" stroke-opacity="1" stroke-width="2" stroke-linecap="butt" stroke-linejoin="miter" stroke-miterlimit="4" points="0.00000000 0.00000000 546.00000000 485.00000000 0.00000000 0.00000000" fill-rule="evenodd" stroke-dasharray="none" dojoGfxStrokeStyle="solid" style="display: none;"/><path fill="none" fill-opacity="0" stroke="rgb(51, 51, 51)" stroke-opacity="1" stroke-width="2" stroke-linecap="butt" stroke-linejoin="miter" stroke-miterlimit="4" path="" stroke-dasharray="none" d="M546,440 C546,462.5 546,462.5  546,485"/><path fill="none" fill-opacity="0" stroke="rgb(51, 51, 51)" stroke-opacity="0" stroke-width="10" stroke-linecap="butt" stroke-linejoin="miter" stroke-miterlimit="4" path="" stroke-dasharray="none" d="M546,440 C546,462.5 546,462.5  546,485" style="display: none;"/><path fill="rgb(250, 250, 250)" fill-opacity="1" stroke="rgb(51, 51, 51)" stroke-opacity="1" stroke-width="2" stroke-linecap="butt" stroke-linejoin="miter" stroke-miterlimit="4" path="" stroke-dasharray="none" fill-rule="evenodd" style="display: none;"/><path fill="rgb(250, 250, 250)" fill-opacity="1" stroke="rgb(51, 51, 51)" stroke-opacity="1" stroke-width="2" stroke-linecap="butt" stroke-linejoin="miter" stroke-miterlimit="4" path="" fill-rule="evenodd" stroke-dasharray="none" style="display: none;"/></g></g><g/><g/></g></svg>