<?xml version="1.0" encoding="UTF-8"?>
<svg style="background-color:transparent;" preserveAspectRatio="xMinYMin meet" height="386" width="683" viewBox="264 131 703 406" xmlns:xlink="http://www.w3.org/1999/xlink" xmlns="http://www.w3.org/2000/svg" ><defs><g id="linkshape" class="svglink"><rect width="26" height="25.705463" x="0" y="0" rx="26" style="fill:#fff;stroke:none;"/><path d="m12.96972,3.89162c-1.46202,0.0926 -1.96087,1.3485 -1.97318,2.16807c0.061,1.06359 0.95974,1.43208 1.91556,1.67657c0.86622,0.20718 2.53795,-0.39401 2.58252,-1.25608c0.1196,-2.10236 -0.96772,-2.51327 -2.5249,-2.58856 z" style="fill:none;stroke:#00642A;stroke-width:1.33538628"/><path d="m13.33742,8.10908c-0.00095,4.26823 0.42843,9.17994 0.13576,13.07847" style="fill:none;stroke:#00642A;stroke-width:1.33538628"/><path d="m5.79976,15.83298c1.21269,7.46208 13.76733,8.39403 14.45306,0.22481" style="fill:none;stroke:#00642A;stroke-width:1.33538628"/><path d="m20.53438,12.70151c0.36453,0.65146 1.3076,1.62194 1.50505,2.23541c0.14125,0.40272 0.14865,0.52327 -0.60832,0.50239c-0.84553,0.0577 -2.5409,0.2236 -3.30599,0.13608c-0.42486,-0.124 -0.38393,-0.3733 -0.15689,-0.81348c0.4456,-0.73802 0.83742,-1.23374 1.36025,-2.03069c0.44058,-0.5668 0.8427,-0.6095 1.2059,-0.0297 z" style="fill:none;stroke:#00642A;stroke-width:1.33538628"/><path d="m6.65205,12.98495c0.46781,0.5895 0.69238,0.72549 1.30269,1.52036c0.2394,0.21964 0.28495,0.66561 -0.15744,0.62957c-1.02897,0.0804 -2.31388,0.096 -3.23877,0.112c-0.84264,0.0267 -0.72894,-0.1367 -0.46065,-0.75013c0.29098,-0.54544 0.6673,-0.89767 1.08185,-1.59111c0.54713,-0.81778 0.90943,-0.7521 1.47232,0.0793 z" style="fill:none;stroke:#00642A;stroke-width:1.33538628"/></g><style type="text/css">.svg-txt-center tspan {text-anchor: middle;} .svg-txt-right tspan {text-anchor: end;} svg a {fill: #0088cc;} .dark-shape a {fill:#B8ECFF;}</style></defs><g><g/><g><g class="shapebase"><g transform="matrix(1.00000000,0.00000000,0.00000000,1.00000000,274.00000000,141.00000000)"><path fill="rgb(204, 204, 255)" fill-opacity="0" stroke="rgb(51, 51, 51)" stroke-opacity="1" stroke-width="3.0" stroke-linecap="butt" stroke-linejoin="miter" stroke-miterlimit="4" path="" stroke-dasharray="none" d="m663.6173336055525,297.30958596459647c0,48.86938055577697 -28.674274092577566,88.47864533858561 -64.05220954466463,88.47864533858561l-535.3151040165991,0c-35.377935452087065,0 -64.05220954466463,-39.60926478280864 -64.05220954466463,-88.47864533858561l0,-183.28607226249966c0,-48.86938055577697 28.674274092577566,-88.47864533858561 64.05220954466463,-88.47864533858561l544.4632772365114,-25.27887309164343c35.38153473335392,0 64.05580882593148,52.25108368503726 64.05580882593148,101.12046424081423l-9.151892477221377,195.92291929048778z" fill-rule="evenodd"/></g><rect fill="rgb(0, 0, 0)" fill-opacity="0" stroke="none" stroke-opacity="0" stroke-width="1" stroke-linecap="butt" stroke-linejoin="miter" stroke-miterlimit="4" x="274" y="141" width="673" height="386" ry="0" rx="0" fill-rule="evenodd"/><g transform="matrix(1.00000000,0.00000000,0.00000000,1.00000000,274.00000000,141.00000000)"><g class="shapebase"/></g></g><g class="shapebase"><g transform="matrix(1.00000000,0.00000000,0.00000000,1.00000000,322.00000000,187.00000000)"><path fill="rgb(204, 204, 255)" fill-opacity="0" stroke="rgb(51, 51, 51)" stroke-opacity="1" stroke-width="3.0" stroke-linecap="butt" stroke-linejoin="miter" stroke-miterlimit="4" path="" stroke-dasharray="none" d="m13.56624,-0.1244l74.6108,-0.634034c0.851502,-0.007202 1.582534,0.687012 1.537072,1.53711l-2.53566,47.4196c-0.045456,0.849854 -0.68554,1.540528 -1.537072,1.536866l-73.343,-0.316894c-0.851532,-0.003906 -1.560294,-0.686036 -1.537074,-1.53711l1.267828,-46.4686c0.023226,-0.851318 0.685566,-1.53003 1.537074,-1.53711z" fill-rule="evenodd"/><path fill="rgb(204, 204, 255)" fill-opacity="0" stroke="rgb(51, 51, 51)" stroke-opacity="1" stroke-width="3.0" stroke-linecap="butt" stroke-linejoin="miter" stroke-miterlimit="4" path="" stroke-dasharray="none" d="m0.033878,52.5556c-0.045004,0.62378 -0.033878,0.55664 -0.033878,1.281494c0,0.949952 0.717246,1.682128 1.658768,1.687988l96.9066,0.59961c0.94152,0.006104 1.7639,-0.374756 1.658768,-1.31958c-0.079238,-0.712158 0.097022,-0.945068 -0.1204,-1.731446l-39.216,-0.32251c-0.066238,0.860352 -0.787358,1.54663 -1.658768,1.538086l-16.45634,-0.15918c-0.871406,-0.0083 -1.59254,-0.708008 -1.658768,-1.569824z" fill-rule="evenodd"/></g><rect fill="rgb(0, 0, 0)" fill-opacity="0" stroke="none" stroke-opacity="0" stroke-width="1" stroke-linecap="butt" stroke-linejoin="miter" stroke-miterlimit="4" x="322" y="187" width="100" height="56" ry="0" rx="0" fill-rule="evenodd"/><g transform="matrix(1.00000000,0.00000000,0.00000000,1.00000000,322.00000000,187.00000000)"><g class="shapebase"/></g></g><g class="shapebase"><g transform="matrix(1.00000000,0.00000000,0.00000000,1.00000000,304.00000000,272.00000000)"><path fill="rgb(204, 204, 255)" fill-opacity="0" stroke="rgb(51, 51, 51)" stroke-opacity="1" stroke-width="3.0" stroke-linecap="butt" stroke-linejoin="miter" stroke-miterlimit="4" path="" stroke-dasharray="none" d="m65.07985738182238,174.0724518860073c0,28.6126425015689 -2.812038766879821,51.803559187876544 -6.281494546727884,51.803559187876544l-52.497469338923544,0c-3.469455779848063,0 -6.281494546727884,-23.19091668630765 -6.281494546727884,-51.803559187876544l0,-107.31257080654126c0,-28.6126425015689 2.812038766879821,-51.803559187876544 6.281494546727884,-51.803559187876544l53.39461559823144,-14.800583727231645c3.469808755425496,0 6.281847522305316,30.592603401083995 6.281847522305316,59.20524590265289l-0.8975110007379062,114.7113465275913z" fill-rule="evenodd"/></g><rect fill="rgb(0, 0, 0)" fill-opacity="0" stroke="none" stroke-opacity="0" stroke-width="1" stroke-linecap="butt" stroke-linejoin="miter" stroke-miterlimit="4" x="304" y="272" width="66" height="226" ry="0" rx="0" fill-rule="evenodd"/><g transform="matrix(1.00000000,0.00000000,0.00000000,1.00000000,304.00000000,272.00000000)"><g class="shapebase"><text fill="rgb(51, 51, 51)" fill-opacity="1" stroke="none" stroke-opacity="0" stroke-width="1" stroke-linecap="butt" stroke-linejoin="miter" stroke-miterlimit="4" x="33" y="117" text-anchor="middle" text-decoration="none" rotate="0" kerning="auto" text-rendering="auto" fill-rule="evenodd" font-style="normal" font-variant="normal" font-weight="bold" font-size="12px" font-family="arial,helvetica,sans-serif">Qubes VM</text></g></g></g><g class="shapebase"><g transform="matrix(1.00000000,0.00000000,0.00000000,1.00000000,380.00000000,272.00000000)"><path fill="rgb(204, 204, 255)" fill-opacity="0" stroke="rgb(51, 51, 51)" stroke-opacity="1" stroke-width="3.0" stroke-linecap="butt" stroke-linejoin="miter" stroke-miterlimit="4" path="" stroke-dasharray="none" d="m68.03803271735975,176.38314814998083c0,28.9924563400853 -2.939858710828903,52.49121705320234 -6.567017026124605,52.49121705320234l-54.88371794523824,0c-3.6271583152957017,0 -6.567017026124605,-23.49876071311704 -6.567017026124605,-52.49121705320234l0,-108.73707395884047c0,-28.9924563400853 2.939858710828903,-52.49121705320234 6.567017026124605,-52.49121705320234l55.82164357996922,-14.997051652814365c3.627527335217563,0 6.567386046046466,30.998699906408117 6.567386046046466,59.99115624649341l-0.9383069553169018,116.2340635168956z" fill-rule="evenodd"/></g><rect fill="rgb(0, 0, 0)" fill-opacity="0" stroke="none" stroke-opacity="0" stroke-width="1" stroke-linecap="butt" stroke-linejoin="miter" stroke-miterlimit="4" x="380" y="272" width="69" height="229" ry="0" rx="0" fill-rule="evenodd"/><g transform="matrix(1.00000000,0.00000000,0.00000000,1.00000000,380.00000000,272.00000000)"><g class="shapebase"><text fill="rgb(51, 51, 51)" fill-opacity="1" stroke="none" stroke-opacity="0" stroke-width="1" stroke-linecap="butt" stroke-linejoin="miter" stroke-miterlimit="4" x="34" y="109" text-anchor="middle" text-decoration="none" rotate="0" kerning="auto" text-rendering="auto" fill-rule="evenodd" font-style="normal" font-variant="normal" font-weight="bold" font-size="12px" font-family="arial,helvetica,sans-serif">Qubes</text><text fill="rgb(51, 51, 51)" fill-opacity="1" stroke="none" stroke-opacity="0" stroke-width="1" stroke-linecap="butt" stroke-linejoin="miter" stroke-miterlimit="4" x="34" y="126" text-anchor="middle" text-decoration="none" rotate="0" kerning="auto" text-rendering="auto" fill-rule="evenodd" font-style="normal" font-variant="normal" font-weight="bold" font-size="12px" font-family="arial,helvetica,sans-serif">VM...</text></g></g></g><g class="shapebase"><g transform="matrix(1.00000000,0.00000000,0.00000000,1.00000000,458.00000000,272.00000000)"><path fill="rgb(204, 204, 255)" fill-opacity="0" stroke="rgb(51, 51, 51)" stroke-opacity="1" stroke-width="3.0" stroke-linecap="butt" stroke-linejoin="miter" stroke-miterlimit="4" path="" stroke-dasharray="none" d="m121.2851887570326,177.15338023797202c0,29.1190609529241 -5.240617701912392,52.72043634164427 -11.706421655265599,52.72043634164427l-97.83619285890295,0c-6.465803953353207,0 -11.706421655265599,-23.60137538872017 -11.706421655265599,-52.72043634164427l0,-109.21190834294022c0,-29.1190609529241 5.240617701912392,-52.72043634164427 11.706421655265599,-52.72043634164427l99.50814725124948,-15.06254096134194c6.466461771474787,0 11.707079473387179,31.134065408182828 11.707079473387179,60.25312636110692l-1.672634137738825,116.74163584666371z" fill-rule="evenodd"/></g><rect fill="rgb(0, 0, 0)" fill-opacity="0" stroke="none" stroke-opacity="0" stroke-width="1" stroke-linecap="butt" stroke-linejoin="miter" stroke-miterlimit="4" x="458" y="272" width="123" height="230" ry="0" rx="0" fill-rule="evenodd"/><g transform="matrix(1.00000000,0.00000000,0.00000000,1.00000000,458.00000000,272.00000000)"><g class="shapebase"/></g></g><g class="shapebase"><g transform="matrix(1.00000000,0.00000000,0.00000000,1.00000000,595.00000000,270.00000000)"><path fill="rgb(204, 204, 255)" fill-opacity="0" stroke="rgb(51, 51, 51)" stroke-opacity="1" stroke-width="3.0" stroke-linecap="butt" stroke-linejoin="miter" stroke-miterlimit="4" path="" stroke-dasharray="none" d="m321.4550531283954,184.08546902989264c0,30.258502468473303 -13.889767242466991,54.78340993762165 -31.026776094443786,54.78340993762165l-259.30568188619804,0c-17.137008851976795,0 -31.026776094443786,-24.52490746914835 -31.026776094443786,-54.78340993762165l0,-113.48541779983786c0,-30.258502468473303 13.889767242466991,-54.78340993762165 31.026776094443786,-54.78340993762165l263.7370406821734,-15.651944738090101c17.13875233740472,0 31.028519579871713,32.35235492415519 31.028519579871713,62.61085739262849l-4.433160397584203,121.30978681457663z" fill-rule="evenodd"/></g><rect fill="rgb(0, 0, 0)" fill-opacity="0" stroke="none" stroke-opacity="0" stroke-width="1" stroke-linecap="butt" stroke-linejoin="miter" stroke-miterlimit="4" x="595" y="270" width="326" height="239" ry="0" rx="0" fill-rule="evenodd"/><g transform="matrix(1.00000000,0.00000000,0.00000000,1.00000000,595.00000000,270.00000000)"><g class="shapebase"/></g></g><g class="shapebase"><g transform="matrix(1.00000000,0.00000000,0.00000000,1.00000000,857.00000000,403.00000000)"/><rect fill="rgb(0, 0, 0)" fill-opacity="0" stroke="none" stroke-opacity="0" stroke-width="1" stroke-linecap="butt" stroke-linejoin="miter" stroke-miterlimit="4" x="857" y="403" width="100" height="35" ry="4" rx="4" fill-rule="evenodd"/><g transform="matrix(1.00000000,0.00000000,0.00000000,1.00000000,857.00000000,403.00000000)"><g class="shapebase"><text fill="rgb(51, 51, 51)" fill-opacity="1" stroke="none" stroke-opacity="0" stroke-width="1" stroke-linecap="butt" stroke-linejoin="miter" stroke-miterlimit="4" x="0" y="21" text-anchor="start" text-decoration="none" rotate="0" kerning="auto" text-rendering="auto" fill-rule="evenodd" font-style="normal" font-variant="normal" font-weight="Normal" font-size="12px" font-family="arial,helvetica,sans-serif"><tspan x="0" font-weight="bold">Kali</tspan></text></g></g></g><g class="shapebase"><g transform="matrix(1.00000000,0.00000000,0.00000000,1.00000000,824.00000000,362.00000000)"/><rect fill="rgb(0, 0, 0)" fill-opacity="0" stroke="none" stroke-opacity="0" stroke-width="1" stroke-linecap="butt" stroke-linejoin="miter" stroke-miterlimit="4" x="824" y="362" width="100" height="35" ry="4" rx="4" fill-rule="evenodd"/><g transform="matrix(1.00000000,0.00000000,0.00000000,1.00000000,824.00000000,362.00000000)"><g class="shapebase"><text fill="rgb(51, 51, 51)" fill-opacity="1" stroke="none" stroke-opacity="0" stroke-width="1" stroke-linecap="butt" stroke-linejoin="miter" stroke-miterlimit="4" x="0" y="21" text-anchor="start" text-decoration="none" rotate="0" kerning="auto" text-rendering="auto" fill-rule="evenodd" font-style="normal" font-variant="normal" font-weight="Normal" font-size="12px" font-family="arial,helvetica,sans-serif"><tspan x="0" font-weight="bold">Ubuntu</tspan></text></g></g></g><g class="shapebase"><g transform="matrix(1.00000000,0.00000000,0.00000000,1.00000000,626.00000000,326.00000000)"/><rect fill="rgb(0, 0, 0)" fill-opacity="0" stroke="none" stroke-opacity="0" stroke-width="1" stroke-linecap="butt" stroke-linejoin="miter" stroke-miterlimit="4" x="626" y="326" width="60" height="35" ry="4" rx="4" fill-rule="evenodd"/><g transform="matrix(1.00000000,0.00000000,0.00000000,1.00000000,626.00000000,326.00000000)"><g class="shapebase"><text fill="rgb(51, 51, 51)" fill-opacity="1" stroke="none" stroke-opacity="0" stroke-width="1" stroke-linecap="butt" stroke-linejoin="miter" stroke-miterlimit="4" x="0" y="21" text-anchor="start" text-decoration="none" rotate="0" kerning="auto" text-rendering="auto" fill-rule="evenodd" font-style="normal" font-variant="normal" font-weight="Normal" font-size="12px" font-family="arial,helvetica,sans-serif"><tspan x="0" font-weight="bold">VS Code</tspan></text></g></g></g><g class="shapebase"><g transform="matrix(1.00000000,0.00000000,0.00000000,1.00000000,765.00000000,311.00000000)"/><rect fill="rgb(0, 0, 0)" fill-opacity="0" stroke="none" stroke-opacity="0" stroke-width="1" stroke-linecap="butt" stroke-linejoin="miter" stroke-miterlimit="4" x="765" y="311" width="100" height="69" ry="4" rx="4" fill-rule="evenodd"/><g transform="matrix(1.00000000,0.00000000,0.00000000,1.00000000,765.00000000,311.00000000)"><g class="shapebase"><text fill="rgb(255, 0, 0)" fill-opacity="1" stroke="none" stroke-opacity="0" stroke-width="1" stroke-linecap="butt" stroke-linejoin="miter" stroke-miterlimit="4" x="0" y="21" text-anchor="start" text-decoration="none" rotate="0" kerning="auto" text-rendering="auto" fill-rule="evenodd" font-style="normal" font-variant="normal" font-weight="Normal" font-size="12px" font-family="arial,helvetica,sans-serif"><tspan x="0" font-weight="bold">Now making</tspan><tspan x="0" dy="17" font-weight="bold">stuff on Linux</tspan><tspan x="0" dy="17" font-weight="bold">using GNU</tspan><tspan x="0" dy="17" font-weight="bold">make!</tspan></text></g></g></g><g class="shapebase"><g transform="matrix(1.00000000,0.00000000,0.00000000,1.00000000,469.00000000,318.00000000)"><path fill="rgb(204, 204, 255)" fill-opacity="0" stroke="rgb(51, 51, 51)" stroke-opacity="1" stroke-width="3.0" stroke-linecap="butt" stroke-linejoin="miter" stroke-miterlimit="4" path="" stroke-dasharray="none" d="m1.5493552994685753,0.08476083157242112l98.34584349090112,1.88287112943224l-2.20854856999837,67.91995124386021l-97.56639882230265,-0.268773605357386z" fill-rule="evenodd"/></g><rect fill="rgb(0, 0, 0)" fill-opacity="0" stroke="none" stroke-opacity="0" stroke-width="1" stroke-linecap="butt" stroke-linejoin="miter" stroke-miterlimit="4" x="469" y="318" width="100" height="70" ry="0" rx="0" fill-rule="evenodd"/><g transform="matrix(1.00000000,0.00000000,0.00000000,1.00000000,469.00000000,318.00000000)"><g class="shapebase"/></g></g><g class="shapebase"><g transform="matrix(1.00000000,0.00000000,0.00000000,1.00000000,497.00000000,323.00000000)"/><rect fill="rgb(0, 0, 0)" fill-opacity="0" stroke="none" stroke-opacity="0" stroke-width="1" stroke-linecap="butt" stroke-linejoin="miter" stroke-miterlimit="4" x="497" y="323" width="75" height="69" ry="4" rx="4" fill-rule="evenodd"/><g transform="matrix(1.00000000,0.00000000,0.00000000,1.00000000,497.00000000,323.00000000)"><g class="shapebase"><text fill="rgb(51, 51, 51)" fill-opacity="1" stroke="none" stroke-opacity="0" stroke-width="1" stroke-linecap="butt" stroke-linejoin="miter" stroke-miterlimit="4" x="0" y="21" text-anchor="start" text-decoration="none" rotate="0" kerning="auto" text-rendering="auto" fill-rule="evenodd" font-style="normal" font-variant="normal" font-weight="Normal" font-size="12px" font-family="arial,helvetica,sans-serif"><tspan x="0" font-weight="bold">Remote</tspan><tspan x="0" dy="17" font-weight="bold">Desktop</tspan><tspan x="0" dy="17" font-weight="bold">Viewer</tspan></text></g></g></g><g class="shapebase"><g transform="matrix(1.00000000,0.00000000,0.00000000,1.00000000,606.00000000,314.00000000)"><path fill="rgb(204, 204, 255)" fill-opacity="0" stroke="rgb(51, 51, 51)" stroke-opacity="1" stroke-width="3.0" stroke-linecap="butt" stroke-linejoin="miter" stroke-miterlimit="4" path="" stroke-dasharray="none" d="m1.4873810874898323,0.07023040330286322l94.41200975126506,1.5600932215295704l-2.1202066271984346,56.276531030627034l-93.66374286941054,-0.22269813015326267z" fill-rule="evenodd"/></g><rect fill="rgb(0, 0, 0)" fill-opacity="0" stroke="none" stroke-opacity="0" stroke-width="1" stroke-linecap="butt" stroke-linejoin="miter" stroke-miterlimit="4" x="606" y="314" width="96" height="58" ry="0" rx="0" fill-rule="evenodd"/><g transform="matrix(1.00000000,0.00000000,0.00000000,1.00000000,606.00000000,314.00000000)"><g class="shapebase"/></g></g><g class="shapebase"><polyline fill="rgb(255, 255, 255)" fill-opacity="0" stroke="rgb(255, 0, 0)" stroke-opacity="1" stroke-width="2" stroke-linecap="butt" stroke-linejoin="miter" stroke-miterlimit="4" points="777.11931185 250.70006951 790.00000000 266.00000000 796.80978440 247.19503160" fill-rule="evenodd" stroke-dasharray="none" dojoGfxStrokeStyle="solid" style="display: inline;"/><path fill="none" fill-opacity="0" stroke="rgb(255, 0, 0)" stroke-opacity="1" stroke-width="2" stroke-linecap="butt" stroke-linejoin="miter" stroke-miterlimit="4" path="" stroke-dasharray="none" d="M519,316 C519,236 790,186  790,266"/><path fill="none" fill-opacity="0" stroke="rgb(51, 51, 51)" stroke-opacity="0" stroke-width="10" stroke-linecap="butt" stroke-linejoin="miter" stroke-miterlimit="4" path="" stroke-dasharray="none" style="display: none;" d="M519,316 C519,236 790,186  790,266"/><path fill="rgb(250, 250, 250)" fill-opacity="1" stroke="rgb(255, 0, 0)" stroke-opacity="1" stroke-width="2" stroke-linecap="butt" stroke-linejoin="miter" stroke-miterlimit="4" path="" stroke-dasharray="none" fill-rule="evenodd" style="display: none;"/><path fill="rgb(250, 250, 250)" fill-opacity="1" stroke="rgb(255, 0, 0)" stroke-opacity="1" stroke-width="2" stroke-linecap="butt" stroke-linejoin="miter" stroke-miterlimit="4" path="" fill-rule="evenodd" stroke-dasharray="none" style="display: none;"/></g><g class="shapebase"><g transform="matrix(1.00000000,0.00000000,0.00000000,1.00000000,445.00000000,177.00000000)"/><rect fill="rgb(0, 0, 0)" fill-opacity="0" stroke="none" stroke-opacity="0" stroke-width="1" stroke-linecap="butt" stroke-linejoin="miter" stroke-miterlimit="4" x="445" y="177" width="300" height="48" ry="4" rx="4" fill-rule="evenodd"/><g transform="matrix(1.00000000,0.00000000,0.00000000,1.00000000,445.00000000,177.00000000)"><g class="shapebase"><text fill="rgb(51, 51, 51)" fill-opacity="1" stroke="none" stroke-opacity="0" stroke-width="1" stroke-linecap="butt" stroke-linejoin="miter" stroke-miterlimit="4" x="0" y="21" text-anchor="start" text-decoration="none" rotate="0" kerning="auto" text-rendering="auto" fill-rule="evenodd" font-style="normal" font-variant="normal" font-weight="Normal" font-size="12px" font-family="arial,helvetica,sans-serif"><tspan dy="14" font-size="24" font-weight="bold" x="0">Laptop Running Qubes</tspan></text></g></g></g><g class="shapebase"><polyline fill="rgb(255, 255, 255)" fill-opacity="0" stroke="rgb(255, 0, 0)" stroke-opacity="1" stroke-width="2" stroke-linecap="butt" stroke-linejoin="miter" stroke-miterlimit="4" points="743.64396139 354.93820526 761.00000000 345.00000000 743.71524247 334.93833229" fill-rule="evenodd" stroke-dasharray="none" dojoGfxStrokeStyle="solid" style="display: inline;"/><path fill="none" fill-opacity="0" stroke="rgb(255, 0, 0)" stroke-opacity="1" stroke-width="2" stroke-linecap="butt" stroke-linejoin="miter" stroke-miterlimit="4" path="" stroke-dasharray="none" d="M704,343 C732.5,343 732.5,345  761,345"/><path fill="none" fill-opacity="0" stroke="rgb(51, 51, 51)" stroke-opacity="0" stroke-width="10" stroke-linecap="butt" stroke-linejoin="miter" stroke-miterlimit="4" path="" stroke-dasharray="none" style="display: none;" d="M704,343 C732.5,343 732.5,345  761,345"/><path fill="rgb(250, 250, 250)" fill-opacity="1" stroke="rgb(255, 0, 0)" stroke-opacity="1" stroke-width="2" stroke-linecap="butt" stroke-linejoin="miter" stroke-miterlimit="4" path="" stroke-dasharray="none" fill-rule="evenodd" style="display: none;"/><path fill="rgb(250, 250, 250)" fill-opacity="1" stroke="rgb(255, 0, 0)" stroke-opacity="1" stroke-width="2" stroke-linecap="butt" stroke-linejoin="miter" stroke-miterlimit="4" path="" fill-rule="evenodd" stroke-dasharray="none" style="display: none;"/></g><g class="shapebase"><g transform="matrix(1.00000000,0.00000000,0.00000000,1.00000000,737.00000000,298.00000000)"><path fill="rgb(204, 204, 255)" fill-opacity="0" stroke="rgb(51, 51, 51)" stroke-opacity="1" stroke-width="3.0" stroke-linecap="butt" stroke-linejoin="miter" stroke-miterlimit="4" path="" stroke-dasharray="none" d="m2.618410456101892,0.18768469848178962l166.20447549962287,4.169214643742817l-3.7324470832972447,150.39417775426188l-164.88721400969146,-0.595141554719926z" fill-rule="evenodd"/></g><rect fill="rgb(0, 0, 0)" fill-opacity="0" stroke="none" stroke-opacity="0" stroke-width="1" stroke-linecap="butt" stroke-linejoin="miter" stroke-miterlimit="4" x="737" y="298" width="169" height="155" ry="0" rx="0" fill-rule="evenodd"/><g transform="matrix(1.00000000,0.00000000,0.00000000,1.00000000,737.00000000,298.00000000)"><g class="shapebase"/></g></g><g class="shapebase"><g transform="matrix(1.00000000,0.00000000,0.00000000,1.00000000,842.00000000,404.00000000)"><path fill="rgb(204, 204, 255)" fill-opacity="0" stroke="rgb(51, 51, 51)" stroke-opacity="1" stroke-width="3.0" stroke-linecap="butt" stroke-linejoin="miter" stroke-miterlimit="4" path="" stroke-dasharray="none" d="m0.8211583087183448,0.03753693969635793l52.123297050177584,0.8338429287485635l-1.1705307420991358,30.07883555085238l-51.71019137582039,-0.11902831094398522z" fill-rule="evenodd"/></g><rect fill="rgb(0, 0, 0)" fill-opacity="0" stroke="none" stroke-opacity="0" stroke-width="1" stroke-linecap="butt" stroke-linejoin="miter" stroke-miterlimit="4" x="842" y="404" width="53" height="31" ry="0" rx="0" fill-rule="evenodd"/><g transform="matrix(1.00000000,0.00000000,0.00000000,1.00000000,842.00000000,404.00000000)"><g class="shapebase"/></g></g><g class="shapebase"><g transform="matrix(1.00000000,0.00000000,0.00000000,1.00000000,751.00000000,311.00000000)"><path fill="rgb(204, 204, 255)" fill-opacity="0" stroke="rgb(51, 51, 51)" stroke-opacity="1" stroke-width="3.0" stroke-linecap="butt" stroke-linejoin="miter" stroke-miterlimit="4" path="" stroke-dasharray="none" d="m1.9831747833197764,0.10292386690936851l125.88267966835343,2.2863435143105773l-2.8269421695979133,82.47422651040169l-124.88499049254739,-0.3263679493625401z" fill-rule="evenodd"/></g><rect fill="rgb(0, 0, 0)" fill-opacity="0" stroke="none" stroke-opacity="0" stroke-width="1" stroke-linecap="butt" stroke-linejoin="miter" stroke-miterlimit="4" x="751" y="311" width="128" height="85" ry="0" rx="0" fill-rule="evenodd"/><g transform="matrix(1.00000000,0.00000000,0.00000000,1.00000000,751.00000000,311.00000000)"><g class="shapebase"/></g></g><g class="shapebase"><g transform="matrix(1.00000000,0.00000000,0.00000000,1.00000000,624.00000000,456.00000000)"/><rect fill="rgb(0, 0, 0)" fill-opacity="0" stroke="none" stroke-opacity="0" stroke-width="1" stroke-linecap="butt" stroke-linejoin="miter" stroke-miterlimit="4" x="624" y="456" width="186" height="41" ry="4" rx="4" fill-rule="evenodd"/><g transform="matrix(1.00000000,0.00000000,0.00000000,1.00000000,624.00000000,456.00000000)"><g class="shapebase"><text fill="rgb(51, 51, 51)" fill-opacity="1" stroke="none" stroke-opacity="0" stroke-width="1" stroke-linecap="butt" stroke-linejoin="miter" stroke-miterlimit="4" x="0" y="21" text-anchor="start" text-decoration="none" rotate="0" kerning="auto" text-rendering="auto" fill-rule="evenodd" font-style="normal" font-variant="normal" font-weight="Normal" font-size="12px" font-family="arial,helvetica,sans-serif"><tspan dy="8" font-size="18" font-weight="bold" x="0">Qubes VM "win10"</tspan></text></g></g></g><g class="shapebase"><g transform="matrix(1.00000000,0.00000000,0.00000000,1.00000000,469.00000000,451.00000000)"/><rect fill="rgb(0, 0, 0)" fill-opacity="0" stroke="none" stroke-opacity="0" stroke-width="1" stroke-linecap="butt" stroke-linejoin="miter" stroke-miterlimit="4" x="469" y="451" width="100" height="35" ry="4" rx="4" fill-rule="evenodd"/><g transform="matrix(1.00000000,0.00000000,0.00000000,1.00000000,469.00000000,451.00000000)"><g class="shapebase"><text fill="rgb(51, 51, 51)" fill-opacity="1" stroke="none" stroke-opacity="0" stroke-width="1" stroke-linecap="butt" stroke-linejoin="miter" stroke-miterlimit="4" x="0" y="21" text-anchor="start" text-decoration="none" rotate="0" kerning="auto" text-rendering="auto" fill-rule="evenodd" font-style="normal" font-variant="normal" font-weight="Normal" font-size="12px" font-family="arial,helvetica,sans-serif"><tspan x="0" font-weight="bold">Qubes VM "dev"</tspan></text></g></g></g><g class="shapebase"><g transform="matrix(1.00000000,0.00000000,0.00000000,1.00000000,752.00000000,395.00000000)"/><rect fill="rgb(0, 0, 0)" fill-opacity="0" stroke="none" stroke-opacity="0" stroke-width="1" stroke-linecap="butt" stroke-linejoin="miter" stroke-miterlimit="4" x="752" y="395" width="100" height="48" ry="4" rx="4" fill-rule="evenodd"/><g transform="matrix(1.00000000,0.00000000,0.00000000,1.00000000,752.00000000,395.00000000)"><g class="shapebase"><text fill="rgb(51, 51, 51)" fill-opacity="1" stroke="none" stroke-opacity="0" stroke-width="1" stroke-linecap="butt" stroke-linejoin="miter" stroke-miterlimit="4" x="0" y="21" text-anchor="start" text-decoration="none" rotate="0" kerning="auto" text-rendering="auto" fill-rule="evenodd" font-style="normal" font-variant="normal" font-weight="Normal" font-size="12px" font-family="arial,helvetica,sans-serif"><tspan dy="14" font-size="24" font-weight="bold" x="0">WSL</tspan></text></g></g></g></g><g/><g/></g></svg>